<svg xmlns="http://www.w3.org/2000/svg" viewBox="0 0 70 70" width="100px" height="100px"><path fill="#ffffff" d="M 31.998047 2.9980469 C 16.000941 2.9980469 2.9980469 16.000941 2.9980469 31.998047 C 2.9980469 47.995153 16.000898 61.001953 31.998047 61.001953 C 47.99511 61.001953 61 47.998071 61 32 C 61 16.001929 47.995153 2.9980469 31.998047 2.9980469 z M 31.998047 4.9980469 C 46.912941 4.9980469 59 17.084071 59 32 C 59 46.915929 46.912984 59.001953 31.998047 59.001953 C 17.083196 59.001953 4.9980469 46.912941 4.9980469 31.998047 C 4.9980469 17.083153 17.083153 4.9980469 31.998047 4.9980469 z M 35.068359 8.8300781 A 1.0001 1.0001 0 0 0 34.074219 9.9394531 L 34.804688 16.625 L 26.197266 9.7128906 A 1.0001 1.0001 0 0 0 25.292969 9.53125 L 24.410156 9.7890625 A 1.0001 1.0001 0 0 0 23.904297 11.369141 L 29.882812 18.929688 L 17.097656 14.658203 A 1.0001 1.0001 0 0 0 16.039062 14.933594 L 15.302734 15.746094 A 1.0001 1.0001 0 0 0 15.546875 17.285156 L 27.037109 23.859375 L 10.548828 25.244141 A 1.0001 1.0001 0 0 0 9.6484375 26.0625 L 9.4296875 27.277344 A 1.0001 1.0001 0 0 0 10.304688 28.449219 L 28.419922 30.435547 L 13.158203 43.136719 A 1.0001 1.0001 0 0 0 12.994141 44.501953 L 13.732422 45.492188 A 1.0001 1.0001 0 0 0 15.013672 45.773438 L 33.433594 35.697266 L 29.855469 53.160156 A 1.0001 1.0001 0 0 0 30.835938 54.361328 L 32.050781 54.361328 A 1.0001 1.0001 0 0 0 32.972656 53.75 L 39.732422 37.769531 L 43.648438 49.660156 A 1.0001 1.0001 0 0 0 45.216797 50.132812 L 46.060547 49.470703 A 1.0001 1.0001 0 0 0 46.433594 48.552734 L 44.921875 37.185547 L 50.134766 43.126953 A 1.0001 1.0001 0 0 0 51.738281 42.994141 L 52.216797 42.216797 A 1.0001 1.0001 0 0 0 52.246094 41.214844 L 47.853516 33.111328 L 53.261719 35.125 A 1.0001 1.0001 0 0 0 54.607422 34.273438 L 54.681641 33.388672 A 1.0001 1.0001 0 0 0 54.28125 32.501953 L 48.898438 28.511719 L 53.513672 27.396484 A 1.0001 1.0001 0 0 0 54.257812 26.216797 L 54.076172 25.367188 A 1.0001 1.0001 0 0 0 53.269531 24.591797 L 47.726562 23.623047 L 50.921875 19.291016 A 1.0001 1.0001 0 0 0 50.873047 18.042969 L 50.396484 17.490234 A 1.0001 1.0001 0 0 0 49.205078 17.244141 L 44.699219 19.416016 L 45.296875 13.384766 A 1.0001 1.0001 0 0 0 44.806641 12.423828 L 44.181641 12.058594 A 1.0001 1.0001 0 0 0 42.814453 12.416016 L 40.087891 17.0625 L 36.714844 9.4257812 A 1.0001 1.0001 0 0 0 35.800781 8.8300781 L 35.068359 8.8300781 z M 36.523438 13.939453 L 39.046875 19.654297 A 1.0001 1.0001 0 0 0 40.824219 19.755859 L 43.029297 16 L 42.533203 20.992188 A 1.0001 1.0001 0 0 0 43.962891 21.990234 L 47.8125 20.136719 L 45.158203 23.734375 A 1.0001 1.0001 0 0 0 45.789062 25.3125 L 50.332031 26.107422 L 46.349609 27.068359 A 1.0001 1.0001 0 0 0 45.990234 28.84375 L 49.892578 31.736328 L 46.050781 30.306641 A 1.0001 1.0001 0 0 0 44.822266 31.720703 L 48.113281 37.789062 L 44.246094 33.382812 A 1.0001 1.0001 0 0 0 42.503906 34.175781 L 43.755859 43.591797 L 40.796875 34.613281 A 1.0001 1.0001 0 0 0 38.927734 34.537109 L 32.691406 49.279297 L 35.826172 33.984375 A 1.0001 1.0001 0 0 0 34.365234 32.90625 L 17.46875 42.150391 L 31.509766 30.464844 A 1.0001 1.0001 0 0 0 30.978516 28.703125 L 14.609375 26.910156 L 30.404297 25.582031 A 1.0001 1.0001 0 0 0 30.816406 23.71875 L 20.865234 18.025391 L 32.431641 21.890625 A 1.0001 1.0001 0 0 0 33.533203 20.322266 L 28.867188 14.421875 L 35.435547 19.697266 A 1.0001 1.0001 0 0 0 37.054688 18.808594 L 36.523438 13.939453 z M 9.8769531 31.423828 A 1.0001 1.0001 0 0 0 9.7597656 33.419922 L 16.171875 34.123047 L 14.333984 35.652344 A 1.0001 1.0001 0 1 0 15.613281 37.189453 L 19.261719 34.154297 A 1.0001 1.0001 0 0 0 18.730469 32.390625 L 9.9765625 31.431641 A 1.0001 1.0001 0 0 0 9.8769531 31.423828 z M 12.259766 37.648438 A 1.0001 1.0001 0 0 0 11.646484 37.888672 L 9.9589844 39.292969 A 1.0001 1.0001 0 1 0 11.238281 40.830078 L 12.925781 39.425781 A 1.0001 1.0001 0 0 0 12.259766 37.648438 z M 17.384766 47.412109 A 1.0001 1.0001 0 0 0 16.617188 47.761719 L 15.294922 49.259766 A 1.0001 1.0001 0 1 0 16.792969 50.583984 L 18.117188 49.083984 A 1.0001 1.0001 0 0 0 17.384766 47.412109 z M 21.359375 50.257812 A 1.0001 1.0001 0 0 0 20.494141 50.796875 L 19.546875 52.560547 A 1.0001206 1.0001206 0 1 0 21.308594 53.507812 L 22.255859 51.744141 A 1.0001 1.0001 0 0 0 21.359375 50.257812 z M 25.882812 52.140625 A 1.0001 1.0001 0 0 0 24.960938 52.888672 L 24.429688 54.816406 A 1.0001 1.0001 0 1 0 26.357422 55.347656 L 26.888672 53.419922 A 1.0001 1.0001 0 0 0 25.882812 52.140625 z"/></svg>