<?xml version="1.0" encoding="utf-8"?>
<!-- Generator: Adobe Illustrator 26.1.0, SVG Export Plug-In . SVG Version: 6.00 Build 0)  -->
<svg version="1.1"
	 id="Logo" inkscape:version="1.1.2 (b8e25be833, 2022-02-05)" xmlns:inkscape="http://www.inkscape.org/namespaces/inkscape" xmlns:sodipodi="http://sodipodi.sourceforge.net/DTD/sodipodi-0.dtd" xmlns:svg="http://www.w3.org/2000/svg"
	 xmlns="http://www.w3.org/2000/svg" xmlns:xlink="http://www.w3.org/1999/xlink" x="0px" y="0px" viewBox="0 0 854 317.1"
	 style="enable-background:new 0 0 854 317.1;" xml:space="preserve">
<style type="text/css">
	.st0{fill:#D4594D;}
</style>
<path id="НЕ" class="st0" d="M284.7,104.3L284.7,104.3C284.7,104.3,284.7,104.4,284.7,104.3C284.7,104.4,284.7,104.4,284.7,104.3z
	 M284.7,104.3L284.7,104.3C284.6,104.3,284.7,104.3,284.7,104.3z M280.8,99.7c-0.2,0.3-0.4,0.4-0.6,0.7
	C280.4,100.1,280.5,100.2,280.8,99.7z M277.9,98.3c0,0.1,0.1,0,0.2-0.1c0.1-0.2,0.2-0.3,0.3-0.5l0,0
	C278.3,97.9,278.1,98.1,277.9,98.3z M267.5,94.9c-0.2,0.3-0.3,0.6,0.1,0.2C267.6,95,267.7,94.8,267.5,94.9z M270.1,93.2
	c0,0.1-0.1,0.1-0.1,0.2c0.1,0,0.1-0.1,0.2-0.1C270.2,93.3,270.1,93.2,270.1,93.2z M268.4,96c0.1-0.2-0.4,0.3-0.5,0.4
	C268,96.5,268.1,96.3,268.4,96z M274.4,96.2c-0.2,0.2-0.4,0.3-0.5,0.5s0.4-0.3,0.2,0C274.2,96.6,274.3,96.4,274.4,96.2z M276.4,95.4
	c-0.4,0.4-0.4,0.2-0.6,0.5c0,0.1,0,0.3,0.2,0.1l0,0C276.1,95.7,276.3,95.6,276.4,95.4z M269.8,93.6
	C270.1,93.2,269.9,93.4,269.8,93.6h0.1c0,0,0-0.1,0.1-0.2C269.9,93.5,269.9,93.5,269.8,93.6z M277.5,97.1c0,0.1-0.1,0.1-0.1,0.2
	C277.5,97.1,277.5,97.1,277.5,97.1z M277.4,97.5c0.1-0.1,0.2-0.2,0.4-0.4C277.6,97.2,277.5,97.4,277.4,97.5z M266.8,96.3l-0.1,0.1
	C266.9,96.4,266.8,96.4,266.8,96.3z M278,96.8c-0.1,0.1-0.2,0.2-0.2,0.3c0.1-0.1,0.2-0.2,0.4-0.4C278.1,96.7,278.1,96.8,278,96.8z
	 M278,97.1c-0.2,0.4-0.1,0.3-0.2,0.5c0.1-0.1,0.1-0.1,0.1-0.1c0.1-0.2,0.2-0.3,0.3-0.5C278.2,97,278.1,97,278,97.1z M266.8,96.3
	L266.8,96.3C266.8,96.3,266.9,96.3,266.8,96.3c0.2-0.3,0.5-0.3,0.6-0.6C267.2,95.8,267,96.2,266.8,96.3z M270.2,93.5L270.2,93.5
	c-0.1,0-0.2,0-0.3,0.1C269.9,93.8,270,93.7,270.2,93.5z M264,98.9c-0.2,0.2-0.1,0.2-0.2,0.3C263.9,99.1,264.1,98.9,264,98.9
	C264.4,98.6,264.1,98.7,264,98.9z M267.7,95.2c-0.1,0.2-0.1,0.2,0.3-0.1C268.2,94.8,267.8,95.2,267.7,95.2z M278.7,100.1
	c-0.2,0.3-0.3,0.6,0.1,0.3C278.9,100.1,278.7,100.3,278.7,100.1z M280.7,101.1c-0.3,0.2-0.4,0.1-0.7,0.4
	C280,101.6,280.2,101.6,280.7,101.1z M281,101.8c-0.1,0.2,0.1,0.1,0.1,0.2C281.4,101.7,281.3,101.5,281,101.8z M278.3,99.6
	c0,0.1-0.1,0.1-0.1,0.2c0.2-0.2,0,0.1,0.1,0.1c0.4-0.5,0-0.2,0.2-0.5C278.4,99.5,278.4,99.5,278.3,99.6z M264.9,95.5
	c0.1-0.3-0.2,0-0.4,0.1C264.4,95.9,264.7,95.6,264.9,95.5z M269.3,95.3c0-0.1,0.1-0.1,0.2-0.2c0.1-0.2-0.2,0.2-0.4,0.3
	C269.1,95.5,269.2,95.4,269.3,95.3z M264,95.3c0,0.2,0.8-0.6,0.5,0c0.7-0.9-0.4,0-0.2-0.4C264.2,95,264.1,95.2,264,95.3z M263.5,96
	c-0.2,0.4,0.4-0.2,0.7-0.3C264.4,95.3,263.8,95.7,263.5,96z M274.3,97.1c0-0.1,0-0.2-0.3,0c-0.1,0.3,0,0.4,0.2,0.3
	c0.1-0.3,0.3-0.5,0.4-0.7C274.5,96.8,274.4,96.9,274.3,97.1L274.3,97.1z M262.7,96.8c-0.2,0.3,0.3-0.2,0.3,0
	C263.3,96.3,262.8,96.7,262.7,96.8z M265.8,94.4c-0.3,0.3-0.4,0.5-0.6,0.6c-0.1,0.2,0.1,0.1,0.3,0C265.4,95,265.9,94.4,265.8,94.4z
	 M298.5,64.3c0-0.2-0.2-0.1-0.1-0.4c-0.5,0.5-0.4,0.1-0.4,0c-0.1,0-0.1,0.1-0.2,0.2c0,0.1,0,0.2-0.1,0.2l0,0
	C298.1,64.1,298.1,64.4,298.5,64.3z M266.3,94.7L266.3,94.7L266.3,94.7L266.3,94.7z M263.3,96.2c0-0.2,0.2-0.5-0.4,0
	C263.3,95.9,262.9,96.5,263.3,96.2z M287.2,109.5c-0.1,0.1-0.1,0.1-0.1,0.1C287.2,109.6,287.2,109.5,287.2,109.5z M265.6,94.9
	c-0.1,0.1-0.1,0.2-0.2,0.3c0.3-0.2,0.3-0.1,0.6-0.3c-0.3,0.5-0.3,0.3-0.6,0.7c-0.2,0.4,0.5-0.4,0.3-0.1c0.1-0.1,0.5-0.7,0.4-0.4
	c0-0.1,0.1-0.1,0.1-0.2s0.1-0.1,0.1-0.2C266,95.1,266.1,94.6,265.6,94.9z M282,103.8c-0.2,0.2-0.3,0.5,0,0.2
	C282.3,103.6,281.9,103.9,282,103.8z M267.6,95.4c0.2,0.2,0.7-0.2,1-0.2c0.1-0.3-0.2-0.2-0.4-0.3C267.9,95.3,267.9,95.2,267.6,95.4z
	 M263.1,99c0.1,0.1,0.3,0,0.6-0.1C263.6,98.8,263.5,98.7,263.1,99z M284.4,106.6c0,0.1,0.2,0,0.1,0.3
	C284.8,106.6,284.7,106.4,284.4,106.6z M285.3,106L285.3,106L285.3,106L285.3,106z M326.9,89.7L326.9,89.7L326.9,89.7L326.9,89.7z
	 M320.8,91.2L320.8,91.2C320.7,91.2,320.7,91.2,320.8,91.2L320.8,91.2z M327.3,89.1c-0.1,0.1-0.2,0.3-0.4,0.5c0,0,0,0,0,0.1
	C327.1,89.5,327.2,89.3,327.3,89.1z M323.2,98.5c0-0.2-0.3,0.2-0.5,0.3c0,0,0,0.1,0,0.2c0.3-0.4,0.2-0.2,0.3-0.3
	C323.1,98.6,323.1,98.6,323.2,98.5L323.2,98.5z M326.9,89.6c0.1-0.2,0.1-0.3-0.1-0.2c0,0.1-0.1,0.2,0,0.3
	C326.9,89.6,326.9,89.6,326.9,89.6z M296.6,63.9L296.6,63.9L296.6,63.9L296.6,63.9z M294.6,64.6c0,0,0.1,0,0.1-0.1
	S294.6,64.5,294.6,64.6z M294,64.8L294,64.8C294,64.9,294,64.9,294,64.8L294,64.8z M298.9,65.1c0.1,0,0.2-0.1,0.2-0.1
	S299,64.9,298.9,65.1z M299.2,65c0,0,0.1,0,0.1-0.1C299.3,64.9,299.2,64.9,299.2,65z M326.5,96.2c0.1-0.1,0.1-0.1,0.1-0.1V96
	C326.6,96.1,326.6,96.1,326.5,96.2z M324.2,92.6L324.2,92.6L324.2,92.6L324.2,92.6z M327.5,91.2c0,0.1,0,0.2-0.1,0.2l0,0
	C327.6,91.2,327.7,91.1,327.5,91.2z M327.4,91.3c0-0.1-0.1,0.1,0-0.2c0,0.1-0.1,0.1-0.1,0.1C327.3,91.3,327.3,91.3,327.4,91.3
	L327.4,91.3z M320.7,86.4L320.7,86.4C320.6,86.5,320.6,86.5,320.7,86.4z M319.1,83C319.2,83,319.2,82.9,319.1,83L319.1,83z
	 M323.1,88.9c-0.1,0-0.1,0.1-0.2,0.1C322.7,89.2,322.9,89.1,323.1,88.9z M313.5,77.8l-0.1,0.1C313.4,77.9,313.5,77.9,313.5,77.8z
	 M268.5,93.7l0.1-0.1L268.5,93.7z M323.1,88.9c0.1-0.1,0.2-0.1,0.2-0.2l0,0C323.3,88.7,323.2,88.8,323.1,88.9z M264.8,94.3
	c0.2,0.1,1.2-1,1.8-1.5c0-0.3-0.9,0.8-1.2,0.9c0.1-0.2,0.2-0.3,0.3-0.4c0.1-0.2-0.3,0.2-0.4,0.4l0.1-0.1
	C265.3,93.9,265,94,264.8,94.3z M267.1,94.7c0.1,0,0.1-0.1,0.2-0.1c0,0,0,0,0-0.1c-0.1,0-0.1,0.1-0.1,0.1L267.1,94.7z M265.3,93.7
	C265.2,93.7,265.2,93.7,265.3,93.7C265.2,93.8,265.2,93.8,265.3,93.7C265.2,93.8,265.2,93.7,265.3,93.7z M266.9,94.9
	C266.6,95.2,266.7,95.3,266.9,94.9L266.9,94.9z M268.1,94.1C268.1,94.1,268.1,94,268.1,94.1L268.1,94.1
	C268.1,94.2,268.1,94.1,268.1,94.1z M264,94.8c0.1-0.3-0.2-0.1-0.6,0.3c-0.2,0.5-0.6,0.7-0.5,0.5c0.2-0.4,0.3-0.4,0.5-0.5
	c0.3-0.5-0.3,0.1,0-0.3c-0.3,0.3-0.6,0.6-0.9,0.9c0.1-0.2,0.2-0.3,0.3-0.5c-0.1,0-0.4,0.3-0.4,0.2c-0.2,0.1-0.3,0.3-0.4,0.4
	s0,0.1,0,0.3c0.2-0.2,0.6-0.7,0.5-0.4c-0.4,0.3-0.7,0.6-0.9,0.7c-0.4,0.6,0.6-0.2,0.9-0.6c-0.4,0.5,0,0.2-0.4,0.7
	C262.6,96.1,263.2,95.5,264,94.8L264,94.8L264,94.8L264,94.8z M267.1,94.7c-0.1,0.1-0.1,0.1-0.2,0.2C266.9,95,267,94.9,267.1,94.7z
	 M268,94.3L268,94.3C268,94.2,268,94.3,268,94.3L268,94.3z M267.8,94.6c0.2-0.2,0.2-0.2,0.2-0.3l0,0
	C267.8,94.6,267.7,94.6,267.8,94.6z M268.8,81.1c-0.1,0.1-0.1,0.2-0.2,0.3C268.8,81.3,268.8,81.1,268.8,81.1z M268.9,81
	C268.9,81.1,268.8,81.1,268.9,81C268.8,81.1,268.8,81.1,268.9,81z M269.1,81.4C269.1,81.5,269.1,81.5,269.1,81.4
	c-0.1,0.2-0.3,0.4-0.4,0.6c0.2-0.1,0.5-0.4,0.6-0.5c0,0,0-0.1-0.1-0.1C269.2,81.4,269.2,81.4,269.1,81.4z M293.6,64.7
	C293.7,64.7,293.7,64.7,293.6,64.7C293.8,64.6,293.7,64.7,293.6,64.7z M261.6,95.7c-0.1,0.3,0.3-0.1,0.3,0c0.3-0.3,0.1-0.2,0.2-0.3
	l0,0C261.8,95.6,261.8,95.6,261.6,95.7z M293.6,64.7L293.6,64.7L293.6,64.7L293.6,64.7z M261.4,91L261.4,91L261.4,91L261.4,91z
	 M268.7,82L268.7,82L268.7,82L268.7,82z M261.4,90.9L261.4,90.9C261.5,90.8,261.5,90.8,261.4,90.9L261.4,90.9z M261.5,90.1
	c-0.1,0.2,0,0.2,0.1,0c0,0,0.1-0.1,0.1-0.2C261.6,90,261.6,90,261.5,90.1z M296.8,64.1c0.1-0.1,0.3-0.2,0.4-0.2c0-0.2-0.2,0-0.4,0
	C296.8,64,296.8,64,296.8,64.1z M262.3,89.7L262.3,89.7L262.3,89.7L262.3,89.7z M262.2,89.3C262.1,89.4,262.1,89.3,262.2,89.3
	c-0.2,0.2-0.5,0.5-0.5,0.4c0.1-0.1,0.4-0.5,0.3-0.4c-0.4,0.4-0.9,1.1-0.9,1.3c0.2-0.3,0.5-0.7,0.8-1c-0.1,0.2-0.1,0.3-0.2,0.4
	c0,0,0.1-0.1,0.2-0.2C262,89.6,262.1,89.5,262.2,89.3z M268.1,94c0-0.1,0.1-0.1,0.1-0.2c-0.1,0.1-0.2,0.1-0.2,0.2
	C268.1,94,268.1,94,268.1,94z M262.3,89.7L262.3,89.7L262.3,89.7L262.3,89.7z M262.3,89.7c0.1-0.1,0.2-0.1,0.2-0.2
	c0,0,0-0.1,0.1-0.1c0,0,0-0.1,0.1-0.2c-0.3,0.3-0.4,0.3-0.6,0.3c-0.1,0.2-0.3,0.5-0.5,0.6c-0.1,0.2-0.2,0.3-0.3,0.5
	c0.3-0.2,0.5-0.4,0.2,0c0.2-0.2,0.4-0.5,0.6-0.8C262.2,89.7,262.2,89.7,262.3,89.7z M267.6,94.3c-0.1,0.1-0.1,0.1-0.2,0.3
	c0.4-0.4,0.3-0.2,0.5-0.3c0,0,0-0.1,0.1-0.1C268,94.1,267.8,94.2,267.6,94.3z M262.3,95.3L262.3,95.3c0.2-0.2,0.3-0.4,0.5-0.5l0,0
	C262.6,94.9,262.5,95.1,262.3,95.3z M274.4,76L274.4,76L274.4,76L274.4,76z M261.5,90.8C261.5,90.8,261.5,90.8,261.5,90.8
	C261.6,90.7,261.6,90.7,261.5,90.8z M262.3,89.7c0,0,0.1,0,0.1-0.1C262.5,89.6,262.4,89.6,262.3,89.7z M296.8,63.9c0,0-0.1,0-0.2,0
	C296.6,64,296.7,64,296.8,63.9z M293.8,65.3L293.8,65.3c-0.1,0-0.1,0.1-0.2,0.2C293.7,65.4,293.8,65.3,293.8,65.3L293.8,65.3z
	 M326.7,97.4c0.1-0.1,0.2-0.2,0.3-0.3c-0.1,0,0.1-0.3,0.3-0.6C327.1,96.7,326.9,97,326.7,97.4z M296.5,64.2
	c-0.6,0.8,0.2,0.2,0.3,0.1c0-0.1,0-0.1,0-0.2C296.7,64.2,296.5,64.3,296.5,64.2z M276.2,95.4c0.2-0.3-0.3,0.2-0.2,0
	C275.5,95.9,276,95.5,276.2,95.4z M275.4,75.2c0,0,0.1,0,0.2-0.1s0.1-0.1,0.3-0.2c0,0,0,0,0.1-0.1c0.2-0.2,0.3-0.3,0.3-0.4
	c-0.4,0.4-0.6,0.5-0.9,0.6C275.3,75.2,275.3,75.2,275.4,75.2L275.4,75.2L275.4,75.2z M293.6,64.7L293.6,64.7
	C293.6,64.8,293.6,64.7,293.6,64.7z M270,93.2c-0.1,0.1-0.2,0.2-0.3,0.3l0,0c0,0.1-0.2,0.4,0.1,0C269.9,93.4,269.9,93.3,270,93.2z
	 M294.2,64.9c-0.1,0.1-0.2,0.3-0.1,0.2c0.1-0.1,0.3-0.4,0.5-0.5c-0.1,0.1-0.3,0.2-0.6,0.3l0,0c-0.1,0.2-0.2,0.3-0.2,0.4
	C293.9,65.1,294.1,65,294.2,64.9z M285.8,103.5L285.8,103.5c-0.1-0.1-0.1-0.1-0.1-0.3l0,0c-0.1,0.1-0.1,0.1-0.1,0.2
	C285.6,103.4,285.5,103.7,285.8,103.5c-0.1,0.1-0.2,0.2-0.2,0.3l0,0c0.1-0.1,0.1-0.1,0.1,0C285.8,103.7,285.9,103.6,285.8,103.5
	C285.9,103.5,285.9,103.5,285.8,103.5L285.8,103.5z M286.2,104.2c0,0-0.1,0.1-0.2,0.2l0,0c0,0-0.1,0.3,0.1,0.1
	C286.2,104.4,286.3,104.3,286.2,104.2C286.3,104.2,286.2,104.3,286.2,104.2C286.2,104.3,286.2,104.2,286.2,104.2z M285.6,103.8
	L285.6,103.8c0,0.1-0.1,0.4,0.1,0.4c-0.1,0.1-0.2,0.1-0.4,0.5l0,0c0-0.1,0.1-0.2-0.2,0.1c-0.1,0,0-0.1,0.2-0.4
	c-0.2,0.1-0.7,0.4-0.6,0.1c0.2-0.1,0.3-0.2,0.4-0.4l0,0c0,0,0,0,0.1-0.1l0,0c0.3-0.4-0.1,0.3,0.2-0.1
	C285.5,103.8,285.4,103.8,285.6,103.8C285.6,103.7,285.6,103.7,285.6,103.8L285.6,103.8z M285.5,103.9c-0.3,0.4-0.2,0.5,0,0.3
	C285.7,103.9,285.4,104.1,285.5,103.9z M296.5,64.2L296.5,64.2L296.5,64.2L296.5,64.2z M285.1,104.8L285.1,104.8
	c-0.1,0.3,0.1,0.1,0.2,0.1c0.1-0.1,0.2-0.3,0.2-0.4c-0.1,0.1-0.1,0.2-0.2,0.3v-0.1C285.2,104.8,285.1,104.8,285.1,104.8z
	 M286.5,105.7c-0.1,0.1,0,0.1-0.1,0.2c0,0,0,0-0.1,0c-0.1,0.1-0.1,0.2-0.2,0.3c0,0,0.1,0.1,0,0.1C286.2,106.1,286.3,106,286.5,105.7
	L286.5,105.7C286.2,106.2,286.7,105.5,286.5,105.7z M270.3,93.4c-0.1,0.2-0.1,0.3,0.2,0C270.5,93.4,270.4,93.4,270.3,93.4z
	 M286.2,105.8c-0.1,0-0.2,0.1-0.2,0.1c-0.1,0.1-0.1,0.1-0.3,0.2c-0.1,0.3,0.4-0.1,0.4,0.1c0,0,0,0,0.1,0
	C286.1,106.1,286,106,286.2,105.8z M284.9,104.1c-0.1,0.1-0.1,0.1-0.1,0.2c0.1,0,0.2-0.1,0.4-0.2
	C285.2,103.9,284.9,104.2,284.9,104.1z M286.1,105.5c-0.1,0-0.1,0.1-0.2,0.1c0,0.1,0,0.1,0.1,0c-0.1,0.1-0.1,0.2-0.2,0.3l0,0
	c0,0.1,0.1,0,0.2,0c0.1-0.1,0.1-0.1,0.1-0.2C285.8,106,285.7,106,286.1,105.5z M285.8,105.3L285.8,105.3c-0.1,0-0.1,0-0.1,0
	c-0.1,0.1-0.2,0.2-0.3,0.4c0.1,0,0.1-0.1,0.2-0.2c-0.1,0.2-0.2,0.3-0.3,0.5c0.2-0.3,0.2-0.3,0.4-0.5
	C285.8,105.4,285.8,105.3,285.8,105.3C285.9,105.2,285.8,105.3,285.8,105.3z M277.5,97c-0.1,0.2,0,0.1-0.2,0.3
	c-0.1,0.2,0.1-0.1,0.2-0.2c0-0.1,0.1-0.1,0.1-0.2v-0.1C277.6,97,277.6,96.8,277.5,97z M275.1,95.1L275.1,95.1L275.1,95.1
	c-0.2,0.2-0.4,0.4-0.6,0.7c0.1,0.1,0.3-0.1,0.4-0.4l-0.1,0.1C275,95.2,275.1,95.1,275.1,95.1z M277.7,96.8L277.7,96.8
	c0-0.1,0.1-0.1,0.1-0.1s0,0,0-0.1C277.7,96.7,277.7,96.8,277.7,96.8z M273.9,94.6c-0.1,0-0.1,0.1-0.2,0.1c0,0.1,0,0.2,0.1,0.1l0,0
	C273.9,94.7,273.9,94.7,273.9,94.6z M284.3,104l0.1-0.1l0,0C284.4,103.9,284.3,103.9,284.3,104c0.1-0.1,0.1-0.1,0.1-0.2v-0.1
	c-0.1,0.1-0.1,0.1-0.2,0.2c0.1-0.1,0.1-0.1,0.2-0.2c0,0-0.1,0-0.2,0.1s-0.1,0.2-0.2,0.2c0.1-0.1,0,0,0-0.1c0,0,0,0-0.1,0.1
	c-0.1,0.2-0.2,0.5-0.2,0.6c0.1-0.2,0.2-0.3,0.3-0.4c0,0.1,0.1,0.1,0.1,0l0,0C284.2,104.1,284.3,104.1,284.3,104z M282.1,100.9
	C282,100.9,282,100.9,282.1,100.9c-0.4,0.5-0.1,0.2-0.1,0.3c0.1-0.1,0.1-0.1,0.1-0.2C282.1,101,282.1,100.9,282.1,100.9z
	 M283.8,102.6L283.8,102.6c-0.2,0.3,0,0.2-0.2,0.4c-0.1,0.2,0.2-0.2,0.1,0C283.8,102.9,283.9,102.8,283.8,102.6
	C283.9,102.7,283.8,102.6,283.8,102.6z M277.8,96.9C277.8,96.9,277.7,96.9,277.8,96.9c-0.1,0-0.1,0.1-0.2,0.1c0,0.1,0,0.1,0,0.2
	C277.9,96.9,277.9,96.9,277.8,96.9l-0.1,0.1C277.7,97,277.8,96.9,277.8,96.9z M278.8,97.9c0,0.1,0,0.1-0.1,0.3
	c0.1-0.1,0.1-0.1,0.2-0.2c0-0.1,0.1-0.2,0.1-0.3C278.9,97.8,278.9,97.9,278.8,97.9z M285.2,104L285.2,104L285.2,104L285.2,104z
	 M326.7,96.1c0,0,0,0.1-0.1,0.2c0.1-0.2,0.3-0.3,0.5-0.6c0,0-0.2,0.1,0-0.1l0,0C326.9,95.7,326.8,96,326.7,96.1z M323.6,94.1
	c0.1-0.2,0.2-0.4,0.2-0.5C323.5,93.8,323.5,94.1,323.6,94.1c-0.2,0.2-0.4,0.3-0.4,0.2c-0.2,0.3,0,0.1,0,0.2
	C323.3,94.3,323.4,94.2,323.6,94.1z M326.6,96.1L326.6,96.1C326.6,96.2,326.6,96.2,326.6,96.1C326.7,96.1,326.7,96.1,326.6,96.1z
	 M326.5,95.9c0.1,0,0.1,0,0.1,0c0-0.1,0.1-0.1,0.1-0.2C326.7,95.9,326.7,95.8,326.5,95.9z M323.2,92.9c-0.2,0.3-0.5,0.8-0.2,0.5
	S323.6,92.6,323.2,92.9z M323.3,94c0.4-0.5,0-0.3,0.2-0.6C323,94,323.2,94,323.3,94z M327.1,95.6C327.1,95.5,327.2,95.5,327.1,95.6
	c0.2-0.3,0.3-0.4,0.4-0.6c0-0.1-0.4,0.4-0.1-0.1c-0.1,0.1-0.1,0.1-0.2,0.2c-0.1,0.2-0.1,0.4-0.4,0.7
	C326.9,95.8,327.3,95.4,327.1,95.6z M323.6,95.1c0-0.2-0.2,0.1-0.3,0.2c0.1-0.1,0.2-0.3,0.3-0.4c-0.3,0.3-0.3,0.4-0.4,0.6
	C323.4,95.4,323.5,95.2,323.6,95.1z M322.2,89.1c-0.1,0-0.1,0.1-0.2,0.2s-0.1,0.2-0.2,0.3c0-0.1,0.1-0.1,0.1-0.2c0,0,0,0-0.1,0.1
	s-0.1,0.2-0.1,0.3c0.2-0.1,0.3-0.3,0.4-0.4c0,0,0,0.1,0.1,0c-0.1,0.1-0.3,0.3-0.4,0.5c0,0,0.1-0.1,0.3-0.3c-0.1,0.2-0.2,0.3-0.3,0.5
	c0.2-0.1,0.2,0.1,0.1,0.4c0.6-0.8,0.1-0.4,0.4-1c0.2,0,0.2,0.1,0.4,0c0.2-0.4-0.4,0.2,0-0.4c-0.3,0.3-0.2,0.3-0.3,0.4c0,0,0,0,0-0.1
	c-0.4,0.4-0.2,0.1,0-0.3C322.3,89,322.3,89,322.2,89.1L322.2,89.1L322.2,89.1z M323.5,95.5c-0.2,0.4,0.2-0.1-0.1,0.4
	c0.2-0.2,0.4-0.4,0.5-0.7C323.5,95.6,323.8,95.1,323.5,95.5z M321,86.2L321,86.2L321,86.2z M323.2,94.5l-0.1,0.1
	C323.2,94.5,323.2,94.5,323.2,94.5z M323.3,92.8c0-0.2-0.1,0-0.2,0c-0.2,0.2,0.2-0.1-0.2,0.4C323,93.1,323.1,92.9,323.3,92.8z
	 M326.5,95.7c0,0-0.1,0-0.1,0.1s0.1,0-0.1,0.4c0.1-0.1,0.2-0.2,0.2-0.3c0,0-0.1,0-0.1,0.1C326.5,95.9,326.5,95.8,326.5,95.7z
	 M324.4,92.3c-0.2,0.2,0.2-0.3,0.2-0.4c-0.3,0.3-0.4,0.3-0.3,0.1c0,0,0,0,0-0.1c-0.1,0.1-0.2,0.2-0.3,0.4c0.3-0.1,0.4-0.1,0.3,0.3
	c0.3-0.3,0.3-0.2,0.5-0.6l0,0c0,0,0,0,0-0.1C324.6,92,324.5,92.2,324.4,92.3z M322.2,90.5c-0.2,0.3,0.3-0.2,0,0.2
	c0.2-0.3,0.4-0.4,0.9-1c-0.1,0.1-0.3,0.2-0.2,0c-0.3,0.2-0.1,0.2-0.2,0.3C322.4,90.4,322.5,90.1,322.2,90.5z M327,91.7L327,91.7
	c0.3-0.3,0.3-0.3,0.3-0.1c0,0,0,0,0.1-0.1c0,0,0,0,0-0.1c0,0,0-0.1-0.1-0.1s-0.1,0.1-0.2,0.1C327.2,91.5,327.1,91.6,327,91.7z
	 M326.7,96.3c0,0.1-0.1,0.3,0.3,0C327.1,96,326.7,96.4,326.7,96.3z M325.1,93.5c-0.3,0.4,0,0.2,0,0.3
	C325.5,93.3,325.1,93.7,325.1,93.5z M327.3,91.2c0-0.1-0.1-0.1-0.1-0.2c-0.2,0.3-0.1,0.2-0.1,0.3C327.1,91.4,327.2,91.3,327.3,91.2z
	 M326.3,88.3c0,0,0,0.1,0.1,0.1c0.1-0.1,0.1-0.2,0.1-0.2C326.5,88.2,326.4,88.2,326.3,88.3C326.4,88.2,326.4,88.2,326.3,88.3z
	 M322.7,92c-0.3,0.5,0.3-0.3,0,0.2c0.1-0.1,0.2-0.2,0.2-0.1c0.2-0.3,0-0.1,0.2-0.4C322.7,92.2,323.1,91.7,322.7,92z M327.4,92.6
	C327.4,92.6,327.5,92.6,327.4,92.6c0.1,0,0.1,0,0.1,0S327.5,92.6,327.4,92.6c0.1,0,0.1,0.1,0.2,0C327.8,92.2,327.7,92.2,327.4,92.6
	L327.4,92.6L327.4,92.6L327.4,92.6z M326.9,97.3c-0.2,0.4-0.2,0.4,0.1,0.2c0-0.1,0.1-0.3,0.2-0.4C327,97.3,327.1,97.1,326.9,97.3
	L326.9,97.3z M327.3,96.5L327.3,96.5L327.3,96.5L327.3,96.5z M322.8,91.7c0-0.2,0.6-0.9,0.2-0.6c-0.1,0.4-0.4,0.5-0.6,0.9
	C322.9,91.4,322.6,92,322.8,91.7z M323.2,92.3c0,0,0-0.1,0.1-0.2c-0.4,0.3,0-0.3-0.4,0C323.1,92.2,322.3,93.3,323.2,92.3z
	 M327.3,91.7C327.4,91.7,327.4,91.7,327.3,91.7C327.4,91.7,327.4,91.8,327.3,91.7c0,0.1,0.1,0,0.2,0c0-0.1,0-0.2-0.1-0.3
	c0,0.1-0.1,0.1-0.1,0.2C327.3,91.7,327.3,91.7,327.3,91.7z M322.5,91.2c0.3-0.5,0-0.2,0-0.4c0.1-0.3,0.3-0.4,0.5-0.6
	c0.1-0.3-0.6,0.6-0.6,0.3c-0.2,0.4-0.1,0.2-0.3,0.6c0.3-0.3,0.1-0.2,0.3-0.5C322.5,90.7,322.1,91.4,322.5,91.2z M467.3,18.5
	c-0.2-0.3-0.3-0.2-0.1,0.3C467.3,18.7,467.4,18.8,467.3,18.5z M463.8,17.9c-0.2-0.3-0.4-0.4-0.3-0.1
	C463.6,17.9,463.7,18.1,463.8,17.9z M534.6,203.9c-0.5-0.9-0.3-0.1-0.8-0.9c0.2,0.6-0.1,0.2-0.3-0.2c-0.1,0.2,0.1,0.5,0.1,0.8
	c0.1,0.1,0.2,0.1,0.2,0.2c0-0.2-0.2-0.4-0.2-0.6c0-0.1,0,0,0-0.1c0.1,0.1,0.2,0.3,0.3,0.5c0-0.1,0-0.1-0.1-0.2
	c0.1,0.2,0.2,0.4,0.3,0.5C534.1,203.6,534.3,203.6,534.6,203.9z M420.3,37C420.3,37,420.3,37.1,420.3,37
	C420.2,36.9,420.2,36.7,420.3,37z M420.2,36.3c0,0.1,0.1,0.2,0.1,0.3c0.1,0.1,0.1,0.2,0.1,0.2c0.1-0.5,0.5-0.3,0.5-0.9
	c-0.2-0.1-0.2,0.2-0.5,0C420.7,36.6,420.3,36.3,420.2,36.3z M419.9,37.2c-0.3-0.3,0,0.8-0.3,0.6C420,38.6,419.9,37.6,419.9,37.2z
	 M462.2,17.8c-0.3-0.4-0.5-0.3-0.5,0C461.8,17.8,462,17.9,462.2,17.8z M470.2,21.4c0.1,0,0.1-0.1,0.4,0.3c-0.3-0.6-0.1-0.4-0.2-0.7
	c0.1,0.2,0.2,0.3,0.3,0.5c-0.1-0.3,0-0.3,0.2,0c-0.2-0.3-0.3-0.6-0.4-0.9c-0.1,0,0,0.2-0.1-0.1c-0.2-0.3,0.1,0.4,0.1,0.5
	c-0.2-0.4-0.4-0.6-0.6-0.8C470.3,21.1,470.1,21.1,470.2,21.4z M471.6,26.9c-0.4-0.7,0-0.2-0.3-0.8l0,0c-0.2-0.2,0.1,0.3,0.1,0.6
	C471.4,26.7,471.5,26.8,471.6,26.9z M534,202.7L534,202.7c-0.3-0.3,0,0.5-0.4-0.2c0.1,0.4,0.2,0.3,0.3,0.6
	C533.9,203,534,203,534,202.7z M472.1,21.6c0.2,0.4,0.3,0.4,0.2-0.1c-0.1-0.1-0.2-0.3-0.3-0.4C472.2,21.5,472,21.3,472.1,21.6z
	 M419.6,38.1c-0.2-0.3-0.3-0.2-0.1,0.3C419.6,38.4,419.7,38.3,419.6,38.1z M470.9,21c-0.2-0.3,0,0.3-0.1,0.3
	C470.9,21.3,471.1,21.5,470.9,21z M471.8,21.4c-0.1,0-0.3-0.4-0.5-0.7c0.1,0.4,0.3,0.8,0.6,1.1C471.9,21.7,471.9,21.5,471.8,21.4z
	 M543.6,202c-0.2-0.3-0.3-0.6-0.4-0.9c-0.1,0,0,0.2-0.1-0.1c-0.2-0.3,0.1,0.4,0.1,0.5c-0.2-0.4-0.4-0.6-0.6-0.7
	c0.4,0.9,0.2,0.9,0.3,1.2c0.1,0,0.1-0.1,0.4,0.3c-0.3-0.6-0.1-0.4-0.2-0.7c0.1,0.1,0.2,0.3,0.3,0.4
	C543.3,201.7,543.4,201.7,543.6,202z M530.9,202.7c0.1,0.1,0.1,0,0-0.2C530.8,202.5,530.8,202.5,530.9,202.7z M541,204.7L541,204.7
	c0.3,0.4,0-0.3,0.3,0.3c-0.1-0.3-0.2-0.6-0.4-0.9C541.1,204.7,540.7,204.2,541,204.7z M529.5,203c0,0.1,0.1,0.2,0.1,0.2
	s0.1,0,0.1-0.1C529.6,203.1,529.5,202.9,529.5,203z M539.9,199.3c0.1-0.1,0.2,0,0.1-0.3C539.8,198.7,539.7,198.8,539.9,199.3z
	 M543.7,201.5c-0.2-0.3,0,0.3-0.1,0.3C543.6,201.8,543.8,202,543.7,201.5z M544,201.2c0.1,0.4,0.3,0.8,0.6,1.1c0-0.1,0-0.3-0.1-0.5
	C544.4,201.8,544.2,201.4,544,201.2z M462.2,25.4c0-0.1,0-0.2-0.1-0.3c0,0.1-0.1,0.1-0.2,0C462,25.3,462.1,25.4,462.2,25.4z
	 M544.8,202.1c0.2,0.4,0.3,0.3,0.2-0.1c-0.1-0.1-0.2-0.3-0.3-0.4C544.9,202,544.7,201.7,544.8,202.1z M473,29.2
	C473,29.2,473,29.1,473,29.2c-0.1-0.2-0.1-0.2-0.2-0.3C472.9,29,472.9,29.1,473,29.2L473,29.2z M539.4,204.4c0.2,0.6,0-0.1,0.3,0.3
	c0-0.3-0.2-0.5-0.3-0.8c-0.2-0.2-0.3-0.3-0.4-0.4c0.1,0.4,0.4,0.6,0.4,0.5C539.5,204.1,539.5,204.4,539.4,204.4z M538.7,203.8
	c0.3,0.8,0.5,0.6,0.5,0.5C538.9,203.6,538.9,204.1,538.7,203.8z M536.6,203.4c0.4,0.7-0.1,0.1,0.1,0.6c0.3,0.6-0.1-0.5,0.2,0.1
	c0-0.3-0.1-0.4,0-0.3C536.8,203.4,536.8,203.7,536.6,203.4z M537.4,203.6c-0.1,0-0.1-0.1-0.2-0.2c0.1,0.5-0.4-0.1-0.3,0.4
	C537.2,203.7,537.9,204.9,537.4,203.6z M538.1,202.2c0-0.1,0-0.2-0.1-0.3C537.8,201.5,538,201.9,538.1,202.2z M540.5,204.4
	c-0.1-0.1,0,0.2,0,0.4c0.1,0.1,0.1,0.1,0.2,0.2C540.7,204.8,540.6,204.6,540.5,204.4z M510.7,210L510.7,210L510.7,210L510.7,210
	c0,0,0-0.1-0.1-0.1c-0.1-0.1-0.1-0.1-0.2-0.2v0.1c0,0.1,0.1,0.2,0.1,0.2c0.1,0.2,0.2,0.2,0.3,0.1C510.8,210,510.7,210,510.7,210
	C510.7,209.9,510.7,210,510.7,210z M540.5,204.8L540.5,204.8c-0.1-0.1-0.1-0.2-0.3-0.4C540.3,204.5,540.4,204.7,540.5,204.8z
	 M539.7,202.1c0.3,0.6,0.2,0.2,0.3,0.2C539.7,201.6,539.8,202.2,539.7,202.1z M461.3,22.3c-0.3-0.4,0,0.5-0.4-0.2
	c0.1,0.4,0.2,0.3,0.3,0.6C461.2,22.5,461.3,22.6,461.3,22.3z M461.3,18.2c-0.1,0-0.1,0.1,0,0.2c0,0,0,0.1,0.1,0.1
	C461.3,18.4,461.3,18.3,461.3,18.2z M465.4,23.9L465.4,23.9c0-0.2-0.2-0.4-0.2-0.6c-0.2-0.2-0.1,0.1-0.1,0.1
	C465.1,23.8,465.1,23.2,465.4,23.9z M465.4,22.3c-0.1-0.6,0-0.5-0.2-0.9c-0.3-0.5,0.1,0.3,0.1,0.5c0.1,0.3-0.2-0.4-0.3-0.4
	c0.2,0.7,0,0.6-0.3,0.3c0.1,0.2,0.2,0.5,0.3,0.7C464.9,22.1,465.1,22,465.4,22.3z M466,23.4c0.3,0.7,0.5,0.6,0.5,0.5
	C466.2,23.2,466.2,23.7,466,23.4z M463.9,22.9c0.4,0.7-0.1,0.1,0.1,0.6c0.3,0.6-0.1-0.5,0.2,0.1c0-0.2-0.1-0.4,0-0.3
	C464.1,22.9,464.1,23.2,463.9,22.9z M464.7,23.1c-0.1,0-0.1-0.1-0.2-0.2c0.1,0.6-0.4-0.1-0.3,0.4C464.4,23.2,465.2,24.5,464.7,23.1z
	 M466.7,24c0.2,0.6,0-0.1,0.3,0.3c0-0.3-0.2-0.5-0.3-0.8c-0.2-0.2-0.3-0.3-0.4-0.4c0.1,0.3,0.3,0.5,0.4,0.5
	C466.8,23.7,466.8,24,466.7,24z M468,24.6c0-0.2-0.1-0.4-0.2-0.6c-0.1-0.1,0,0.2,0,0.4c-0.1-0.2-0.2-0.3-0.3-0.4
	C467.7,24.4,467.8,24.4,468,24.6z M600.7,195.4c-1.7,3-5.8,6.9-10.7,9.9c-5,3-14.6,11-22.9,15.4c-8.3,4.4-17.1,8.3-19,10.5
	s-3.3,2.8-8,5.8s-6.6,3.6-10.2,7.2c-3.6,3.6-2.8,5.8-8,8.8s-13.8,6.9-16.5,9.6s-4.1,7.7-9.1,8.5s-15.7-14.1-17.9-21.8
	c-2.2-7.7-6.3-18.2-7.2-25.6c-0.8-7.4-4.1-11.3-6.3-19s-1.4-11.3-8.3-21.5s-17.3-17.8-16.9-23.2s1.5-13.4,1.5-17.3
	c0-3.9-5.2-26.4-9.9-39.9c-1.5-4.3-3.4-8.8-5.2-12.9c-0.1,0-0.1,0-0.2-0.2c0-0.2-0.1-0.3-0.1-0.4c-0.2-0.4-0.3-0.7-0.5-1.1
	c0.1,0.7,0.1,1.2-0.3,0.5c0,0.5,0,1.4-0.5,0.6c0.1,0.3,0.1,0.5,0,0.4c-0.1-0.3-0.2-0.5-0.4-0.8c0,0.1-0.1,0-0.4-0.4
	c0.1,0.3-0.1,0.2,0.2,0.6c0-0.1-0.1-0.3,0-0.2c0.4,0.7,0.1,0.5,0.3,1.2c-0.3-0.6-0.5-0.8-0.7-1c-0.2,1.5-0.5,3.1-0.8,4.6l0,0
	c-12.5,40.3,4.8,34.4,2.6,65c-1,2-1.6,11.2-1.9,13.2c1.7,9.9-5.6,24.3-3.9,33.6c-1.2,22.8,0.2,47.3,1.4,69.2c-4.2,6.9-5-6.5-7.7-8.8
	c-0.1-6.8-3.9-17.3-2.8-23.7c-0.3,1.8-2.2-9.6-0.8-8.5c-8.1-12.4-5.6-30.2-13.8-43c1-11.1-3.9-17.1-16.3-12.7
	c-12.3,4.3-19,6.2-33.1,5.1l-9.6-0.7c-0.2,24.8,6.4,51.1,5,77.7c1.5,1.4,0.5,5.7,0.8,8.3c0.6,0.2,5.5,10.9,3.9,12.7
	c0.4,9.8-0.9,23.1-2.8,32.5c-4-8.2-1.6-18.6-8-27c-3.8-5.6-8.1-26-6.9-23.4c-2.8-13.1-8.2-25-11.8-37.7
	c-6.1-12.2-5.2-31.1-12.1-43.3c-0.7-24.1-12.6-48.7-17.7-72.4c0,0-0.1,0.1-0.2,0.2c0.1-0.1,0.1-0.2,0.2-0.3c0-0.1,0-0.1,0-0.2v-0.1
	c-0.1-0.3-0.1-0.5-0.2-0.8c-0.1,0-0.1,0-0.1,0c0-0.1,0-0.1,0-0.1c-0.1-0.4-0.2-0.9-0.3-1.3c0.1,0,0.2,0.1,0.3,0.1
	c0.1-0.1,0.2-0.3,0.3-0.4c-0.1,0,0-0.4-0.4,0.1c0.3-0.6-0.3,0-0.4,0c0,0,0.3-0.5-0.1,0c0.1-0.3,0.3-0.4,0.4-0.6
	c-0.5,0.5-0.2-0.1-0.5,0.1c0.2-0.1,0.3-0.3,0.4-0.5c0.1-0.3-0.3,0.3-0.3,0.2c0.1-0.1,0.2-0.2,0.3-0.4c0.1-0.1,0.2-0.2,0.3-0.3
	c0-0.1,0-0.1,0-0.1c-0.1,0.1-0.2,0.1-0.3,0.2l-0.1,0.1l0,0c-0.1,0-0.1,0.1-0.2,0.2c-0.1,0-0.2,0.1-0.1-0.1c0.1-0.4-0.1-0.3-0.2-0.3
	c0.2-0.2,0.4-0.4,0.6-0.6c0-0.1,0-0.2-0.1-0.3c0,0.1-0.1,0.1-0.1,0.1c-0.1,0.1-0.2,0.3-0.3,0.4c-0.1,0.3,0.1,0.2-0.1,0.4
	c-0.1,0.1-0.1,0.1-0.1,0.1c-0.2,0.1-0.3,0.1-0.2-0.1c0,0,0.1-0.1,0.2-0.2s0.1-0.2,0.2-0.3c-0.1,0.1-0.1,0.1-0.2,0.2l0,0
	c-0.1,0-0.1,0.1-0.1,0.1s0.1-0.1,0.1-0.2c-0.1,0.1-0.2,0.1-0.2,0.2c-0.1,0,0-0.2-0.1-0.1c-0.2,0.3-0.2,0.1-0.5,0.5
	c0.2-0.3,0.3-0.4,0.2-0.4c0.3-0.3,0.3-0.1,0.4-0.2c0.3-0.4,0.6-0.7,0.9-1c0-0.2,0-0.2-0.3,0.1l0,0c0,0,0,0-0.1,0
	c0.1-0.2,0.2-0.6-0.3,0c0-0.2,0.5-0.6,0.3-0.5c-0.1,0-0.1,0.1-0.2,0.2c0.2-0.4,0-0.4-0.1-0.4c0,0,0,0,0-0.1c0,0,0,0-0.1,0.1l0,0l0,0
	c0-0.1-0.1-0.1-0.1-0.2l0,0l0,0l0,0c-0.1,0-0.1,0-0.2,0.2c0,0,0,0,0.1,0c-0.1,0.2-0.1,0.2-0.4,0.6c0-0.2,0-0.4-0.5,0.2
	c0,0.1,0,0.1,0,0.1c-0.1-0.1-0.3-0.1-0.4-0.1c0,0,0-0.1,0.1-0.1c0.2-0.2,0.3-0.1,0.4-0.6c-0.1,0.1-0.2,0.3-0.3,0.4l0,0
	c0.1-0.1,0.1-0.1,0.2-0.2l-0.1,0.1l0,0c0-0.1,0.1-0.1,0.1-0.2c-0.2,0.2,0.1-0.2-0.2,0.1c0,0.1-0.1,0.1-0.1,0.2
	c-0.1,0-0.1,0.1-0.2,0.2v-0.1c0.2-0.1,0.3-0.2,0.4-0.4c-0.2,0.2,0-0.1-0.3,0.2c-0.1,0.1-0.2,0.3-0.3,0.4c0.5-0.8-0.2-0.1-0.1-0.4
	c0.1-0.2,0.3-0.3,0.4-0.5c0.1-0.4-0.2-0.3-0.3-0.4c0-0.1,0-0.2-0.1-0.1c0-0.1,0-0.3,0.2-0.7c-0.2,0.1-0.3,0.3-0.4,0.4
	c-0.1-0.1,0.2-0.2,0.3-0.5c-0.1-0.1-0.2,0.2-0.4,0.4c0.1-0.2,0.3-0.4,0.4-0.6c-0.3,0.2-0.1-0.2-0.4,0c-0.1,0.1-0.2,0.3-0.3,0.4
	c0-0.1-0.1,0-0.2,0.1c0.4-0.7-0.3-0.1-0.1-0.4c0.4-0.5,0.2-0.1,0.4-0.2c0.1-0.1,0.1-0.2,0.2-0.3c-0.2-0.1-0.2-0.3-0.3-0.4
	c-0.2,0.4-0.2,0.5-0.1,0.5c-0.2,0.1-0.3,0.3-0.4,0.4c0.3-0.7-0.1,0-0.1-0.2c0.2-0.3,0.4-0.7,0.3-0.7c-0.3,0.4-0.3,0.4-0.5,0.7
	c0.1-0.4-0.1-0.1,0.2-0.6c-0.3,0.3-0.5,0.4-0.1-0.1c-0.2,0.2-0.3,0.2-0.4,0.2c0.1-0.2,0.1-0.2-0.1-0.1c0-0.1,0-0.1-0.1-0.2
	c-0.2,0.1-0.7,0.7-0.6,0.5c0.4-0.5,0.1-0.2,0.5-0.8c-0.8,0.7-0.4-0.1-1.1,0.7c0.2-0.4-0.2,0-0.2-0.1c0.8-0.9-0.1-0.5-0.4-0.3
	c0.5-0.6,0.4-0.2,0.6-0.5c0.1-0.3,0.2-0.5,0.2-0.6c-0.4,0.5-0.2,0.1-0.2,0.1c0.2-0.4,0.1-0.4,0.6-1c-0.4,0.3-0.7,0.7-1,1
	c0.3-0.5,0.2-0.5,0.4-0.9c-0.3,0.3-0.5,0.8-0.8,1.2c-0.2,0.1,0.8-1.2,0.1-0.6c0,0.3-0.4,0.8-0.5,1.2c0-0.1-0.3-0.1,0-0.4
	c0,0.1,0,0.1,0.1,0c0.3-0.6,0.4-0.7,0.3-0.8c0.3-0.3,0.3-0.2,0.6-0.7c0,0.1,0.1-0.2-0.1,0c-0.2,0.3,0,0.2-0.3,0.4
	c0.1-0.2,0.2-0.5-0.3,0.1c0.4-0.6,0.2-0.6-0.2-0.1c0-0.1,0.1-0.3,0.2-0.4c-0.4,0.4-0.3,0.1-0.4,0.2c0.3-0.4,0.4-0.6,0.5-0.8
	c-0.3,0.3-0.6,0.6-0.5,0.2c0.2-0.3,0.2,0.1,0.5-0.4c-0.1,0,0.1-0.4,0.1-0.4c-0.3,0.3-0.3,0.2-0.8,0.7c0.3-0.6-0.6,0.3-0.4-0.2
	c0.1-0.1,0.1-0.2,0.2-0.5c-0.3,0.3-0.3,0.3-0.3,0.4s-0.1,0.1-0.1,0.1c0.1-0.3,0.7-0.8,0.5-0.8c-0.2,0.2-0.3,0.5-0.5,0.6
	c-0.2,0-0.1-0.3-0.3-0.1l0,0l0,0c0,0-0.1,0.1-0.2,0.2c0.1-0.2,0.3-0.3,0.4-0.5c0-0.1,0-0.4-0.5,0.2c0-0.1,0.1-0.4-0.2-0.1l0,0
	c0.3-0.3,0.3-0.3,0.5-0.4c0.1-0.1,0.1-0.2,0.2-0.3c-0.1,0-0.2,0-0.4,0.1c0,0,0-0.1,0.1-0.1c-0.4,0.4,0-0.1-0.2-0.1
	c0.1-0.1,0.1-0.2,0.2-0.3c-0.1,0.2-0.1,0-0.1,0c-0.2,0.2-0.3,0.3-0.4,0.5l0,0c0.2-0.2,0.4-0.4,0.3-0.5c-0.1,0.1-0.3,0.3-0.4,0.4V97
	c0.2-0.3-0.1-0.1-0.2-0.1c-0.2,0.4,0.2-0.1-0.1,0.4c-0.6,0.5-0.2-0.2-0.8,0.6c0.3-0.4,0.3-0.4,0.5-0.7c0-0.1,0.3-0.3,0.5-0.6
	c-0.1-0.1,0.1-0.6-0.4,0c0.2-0.2,0.1,0.1-0.2,0.5c-0.4,0.2-0.3,0-0.8,0.4c0.3-0.5-0.4,0.1,0.2-0.6c-0.4,0.2-0.3,0-0.6,0.3
	c0.5-0.5-0.2,0.1,0.1-0.4c0.3-0.3,0,0.2,0.3-0.1c0.4-0.7,0.2-0.1,0.6-0.6c0-0.2-0.1-0.1,0-0.3c-0.5,0.5-0.7,0.5-1.2,0.9
	c0.1-0.1,0.2-0.3,0.3-0.4l0,0l0,0c0.1-0.1,0.2-0.2,0.3-0.4c0.2-0.2,0.1,0.1,0.4-0.3c-0.2,0-0.4,0.2-0.1-0.4
	c-0.2,0.1-0.7,0.5-0.3-0.1c-0.2,0-1.1,1.1-0.8,0.5c0.2-0.1,0.4-0.4,0.7-0.7c-0.5,0.4-0.3-0.3-0.9,0.3c-0.3,0.5,0.3-0.3,0,0.2
	c-0.1,0.1-0.2,0.1-0.3,0.2c0.1-0.1,0.1-0.2,0.1-0.3v-0.1l0,0l0,0c0-0.1,0-0.1-0.1-0.1c-0.6,0.6-0.4,0.2-0.7,0.5
	c0.1-0.2,0.3-0.4,0.3-0.5c-0.5,0.5-0.4,0.9-0.8,1.1c0.5-0.6,0.8-1.4,0.5-1.2c-0.1,0.1-0.2,0.3-0.3,0.4c0.1-0.3,0.3-0.4,0.4-0.6
	c-0.2,0-0.6,0.6-0.3,0c-0.2,0.2-0.3,0.4-0.5,0.6c0.1-0.2,0.1-0.3,0.2-0.3c0,0,0.1,0,0.1-0.1c0,0,0,0-0.1,0c0.1-0.1,0.1-0.1,0.2-0.2
	c-0.1,0-0.1,0.1-0.2,0.1c0-0.1,0-0.2-0.1,0c0,0,0,0,0,0.1c-0.1,0-0.1-0.1,0-0.3c-0.3,0.2-0.4,0.5-0.6,0.7c0-0.2-0.2,0-0.2-0.1
	c0.1-0.1,0.3-0.3,0.4-0.5c-0.4-0.1-0.7-0.1-0.9-0.4c-0.1,0.1-0.2,0.2-0.3,0.3c0.3-0.4-0.1,0,0-0.2c0.1-0.1,0.2-0.2,0.3-0.4
	c-0.2,0.1,0-0.2-0.4,0.1c0.1-0.2,0.2-0.3,0.3-0.5c-0.6,0.6-0.2-0.1-0.5,0.1c-0.1,0.1-0.1,0.2-0.2,0.3c0.1-0.1,0,0.1,0,0.2
	c-0.2,0.1-0.4,0.1-0.8,0.6c0.1-0.4,0.4-0.4,0.6-0.7c-0.4,0-1.8,1-1.6,0.4c-0.4,0.3-0.2,0.1-0.3,0.1c0.6-0.7,0.6-0.3,1-0.9
	c0,0,0,0-0.1,0c0,0,0,0,0.1-0.1c0.1-0.3-0.4,0.2-0.2-0.1c0,0.1-0.1,0.1-0.1,0.1H270c0.1-0.1,0.1-0.2,0-0.2c0.2-0.1,0.3-0.2,0.5-0.5
	c-0.1,0-0.7,0.3-0.9,0.6c0.1-0.1,0.2-0.3,0.3-0.4c-0.7,0.4-0.8,0.2-2.1,1.4c0.2-0.2,0.3-0.5,0.5-0.7c-0.1,0.1-0.2,0.2-0.1,0.2
	s0.1,0,0.3-0.3c0-0.1,0.1-0.3-0.1-0.2c-0.1,0.1-0.3,0.3-0.4,0.4c-0.1,0,0.4-0.6,0.2-0.5c-0.1,0.1-0.2,0.2-0.3,0.3
	c0.1,0,0.1-0.1-0.2,0.4c0,0,0,0,0.1,0c-0.1,0.1-0.2,0.2-0.4,0.4c-0.1,0.1-0.2,0.1-0.3,0.2c0.1-0.2,0-0.1-0.1,0.1l0,0
	c0.4-0.5,0.8-0.9,1.2-1.4c0.1-0.4-0.7,0.4-0.7,0.3c0.4-0.6,0-0.3,0-0.4c-0.4,0.4-0.9,0.7-0.6,0.3c0.1,0.1,0.3,0,0.5-0.4
	c-0.3,0.3-0.3,0.1-0.4,0.2s-0.2,0.2-0.3,0.4c-0.4,0.2-0.2,0.1-0.7,0.4c0.6-0.9-0.6,0.5,0-0.6c-0.3,0.3-0.2,0.1-0.5,0.4
	c0.5-0.6,0.8-0.9,1.3-1.4c-0.2,0-0.4-0.3-1.4,0.8c0-0.3-0.3-0.4-1.2,0.5c-0.6,1.1,1.1-0.6,0.8,0c-0.4,0.3-0.6,0.4-1.2,1.1l0,0
	c0.1-0.3,0.1-0.4,0.1-0.6c-0.6,0.6-0.5,0.3-1.2,1.1c0.1-0.3,0.4-0.4,0.5-0.7c-0.1-0.1-0.1,0,0.3-0.5c-0.2,0.2-0.5,0.4-0.7,0.6
	c0.1-0.3,0.1-0.4-0.1-0.2c-0.3,0.4,0,0.2-0.1,0.3l0,0c0,0-0.3,0.1-0.5,0.5l-0.1,0.1c0-0.1-0.2,0.1-0.1,0c0,0,0,0,0-0.1l0,0
	c0,0,0.1-0.1,0.1-0.2c0.3-0.2,0.5-0.4,0.6-0.7c-0.4,0.4-0.9,0.8-1.3,1.2c0.5-0.8-0.8,0.6-0.3-0.1c0.3-0.4,0.2-0.2,0.5-0.6
	c-0.2,0.3,0.2-0.1,0.2,0c0.1-0.2,0.2-0.3,0.3-0.5c-0.2,0.1-0.3,0.3-0.5,0.4c0.5-0.6-0.1-0.1,0.1-0.4c0.5-0.4,0.4,0.1,1.4-1.1
	c0.1-0.4-1.5,1.1-0.5-0.3c0-0.1-0.2,0.1-0.4,0.3c-0.1,0.2-0.2,0.3-0.3,0.4c0-0.5-0.9,0.1-0.8-0.4c-0.1,0.1-0.3,0.3-0.4,0.4
	c0.3-0.4-0.1,0.1,0-0.2c0.3-0.3,0.2-0.1,0.5-0.5c0-0.1-0.1-0.2-0.3-0.1c0.1-0.3,0.3-0.4,0.4-0.6c-0.1,0.1-0.3,0.3-0.4,0.4
	c0.1-0.3,0.3-0.4,0.4-0.7c-0.3,0.2-0.2,0.1-0.5,0.4c0.2-0.4,0.5-0.7,0.8-1.1c-0.2,0.1-0.5,0.4-0.3,0c0.1,0,0.1-0.1,0.2-0.1
	c0-0.1,0-0.2,0.1-0.2c-0.2,0.4,0,0.3,0.2,0c-0.1-0.1-0.2-0.2-0.6,0.2c0.1-0.1,0.1-0.2,0.1-0.2c0.1-0.1,0.2-0.2,0.3-0.3
	c0.3-0.3,0-0.1-0.2,0.1c0,0,0-0.1,0.1-0.2c-0.2,0.2-0.4,0.4-0.3,0.2c0.1-0.1,0.2-0.2,0.2-0.2l0,0c0.5-0.5,0.6-0.6,0.8-0.7
	c0.2-0.2,0.2-0.3,0.2-0.3l0,0v-0.1c0,0,0-0.1,0.1-0.1c0.1-0.2,0.3-0.3,0.4-0.5c-0.1,0.1-0.2,0.3-0.3,0.3l0,0
	c0.1-0.3-0.4,0.1-0.5,0.1c0-0.1,0-0.1,0-0.1s0,0.1-0.1,0.1c0,0,0-0.1,0.1-0.2c0,0-0.1,0.1-0.2,0.2l0,0c-0.3,0.2-0.4,0.5-0.7,0.7
	c0.1-0.2,0.5-0.8,0.4-0.7c-0.2,0.3-0.8,0.9-0.8,0.8c0.2-0.4,0.3-0.3,0.4-0.5c-0.2,0.3,0.5-0.5,0.2-0.3c-0.5,0.7-1,0.9-0.9,0.6
	c-0.2,0.2-0.4,0.5-0.6,0.7c0.1-0.2,0-0.2-0.3,0.2c0.1-0.3-0.2,0,0-0.3c0.4-0.4,0.8-0.7,1-0.7c0.1-0.1,0.1-0.2,0.2-0.3
	c-0.7,0.4-0.6,0-1.6,0.7c0.2-0.3,0-0.1,0.2-0.4c0.6-0.5,0.8-0.4,1.6-1.3c0-0.1,0.1-0.1,0.1-0.2c-0.6,0.5-1.7,1.4-1.2,0.5
	c-0.4,0.2-1,0.6-0.6-0.1c-0.2,0.2-0.3,0.3-0.3,0.2c0.2-0.2,0.4-0.4,0.5-0.6c-0.1,0,0-0.1,0.2-0.5c-0.2,0.2-0.2,0-0.4,0.4
	c0.1-0.1,0.3-0.2,0.2-0.1c-0.4,0.6-0.4,0.3-0.8,0.7c0.9-1.1,0.6-1.2,0.8-1.7c0.4-0.4,0.5-0.8,0.7-1.1c1-1.1,1.9-1.8,2.6-2.2
	c-0.3,0.5-0.3,0.3-0.5,0.6c-0.1,0.3,0.6-0.4,0.5-0.1c1.3-1.5,1.1-0.4,1.8-1c-0.3,0.8,0.4,0.4,0.8,0.1c0-0.1-0.5,0.3,0-0.3
	c0.3-0.2,0.2,0.2,0.7-0.3c0,0.2,0.2,0.4,0.7-0.2c0.1,0.1-0.2,0.2-0.3,0.5c0.2-0.1,0.8-0.8,0.6-0.3c-0.2,0.2,0-0.3-0.3,0.1
	c0,0.1,0,0.4,0.5-0.3c-0.1,0.4,0.3,0.3,0.6,0.3c0.6-0.7,1.3-1.2,1.5-1.2c0.2-0.3,0.5-0.7,0.7-1v-0.1c-0.1,0-0.2,0.1-0.3,0.2
	c-0.2,0.3-0.4,0.5-0.6,0.7l0,0l0,0c0.1-0.1,0.1-0.2,0.2-0.3c0-0.1,0-0.1,0-0.1c-0.1,0.2-0.2,0.3-0.3,0.3c-0.1-0.1-0.1-0.1-0.3,0
	c0.1-0.2,0.2-0.3,0.3-0.5c-0.3,0.3-0.3,0.1-0.3,0.1c0.2-0.2,0.7-0.4,0.9-0.8c-0.2,0.1-0.8,0.7-0.7,0.3c0.2-0.2,0.4-0.3,0.5-0.6
	c0-0.2-0.4,0.1-0.2-0.3c0.2-0.2,0.4-0.4,0.5-0.6c0.2-0.3-0.3,0.1,0.1-0.5c-0.1,0.1-0.2,0.2-0.3,0.3c0.3-0.5,0.2-0.6,0-0.5
	c0.5-0.6,0.1-0.4,0.4-0.9c1.1-0.6,1.1,0.1,2.4-0.8c-0.1,0.5,0.3,0.2,0.8-0.2c-0.3,0.6,0.1,0.5,0.8-0.3c-0.3,0.2-0.9,0.8-0.8,0.4
	c0.5-0.3,1.2-0.9,1.1-0.5c-0.1,0.1-0.2,0.2-0.3,0.3c0.1-0.1,0.4-0.3,0.6-0.6c-0.1,0.1-0.2,0.2-0.3,0.3c0.3-0.5,0.6-0.6,0.6-0.5
	c0.1-0.1,0.3-0.2,0.4-0.3l0,0c-0.1,0.2-0.2,0.3-0.3,0.5c0.1,0,0.6-0.3,0.1,0.2c0.1,0,0,0,0.1,0c0.2-0.3,0.5-0.5,0.7-0.8
	c0.1-0.1,0-0.1,0-0.1c-0.2,0.1-0.3,0.3-0.5,0.4c0.3-0.5-0.4,0.3-0.2,0c0.1-0.1,0.2-0.2,0.2-0.2c0.1-0.1,0.2-0.1,0.3-0.2
	c0,0,0,0,0.1,0l0,0c0.2-0.2,0.4-0.3,0.5-0.4c0-0.1,0.1-0.3,0.2-0.4c-0.2,0.2-0.3,0.3-0.4,0.4c0-0.1,0-0.1,0-0.1
	c0.2-0.2,0.5-0.5,0.7-0.8c-0.5,0.5-1.7,1.6-1.1,0.8c-0.1,0-0.3,0.1-0.3,0.1c-0.1,0.1-0.2,0.3-0.3,0.4c0.1-0.2,0.1-0.4,0-0.3
	c-1.3,0.8-1.9,0.6-2.4,0.5c0.7-0.6,0.8-0.6,1.2-0.9c-0.1,0-0.2,0-0.4,0c0.1-0.1,0.5-0.6,0.3-0.5c-0.5,0.6,0-0.3-0.5,0.2
	c0.2-0.4-0.1-0.1,0-0.3c0.3-0.2,0.1,0,0.4-0.2c0.1-0.2,0.3-0.5,0.3-0.6c0.9-0.7,1.5-1.1,2.2-1.6c0.4-0.3,1.5-1.1,1.6-0.9
	c1-0.9,1.5-0.9,1.9-0.9c0.8-0.7,1.1-0.6,1.5-0.7c-0.1,0.1-0.2,0.2-0.3,0.3c0.3-0.3,0.4,0,0.8-0.6c-0.1,0.2-0.2,0.4-0.3,0.6
	c0.6-0.3,1.4-0.8,2.6-1.9c0,0.2,0.2,0.1,0.7-0.5c-0.5,1.1-0.2,1.3,0.5,0.9c0.1-0.2-0.3,0.2-0.1-0.1c0.4-0.4,0.4-0.3,0.8-0.8
	c0,0-0.1,0.3,0.3-0.1c-0.3,0.4-0.3,0.6-0.2,0.5c0.2-0.3,0.4-0.6,0.7-0.8c-0.3,1.1,0,1.3,1.1,0.6c-0.4,0.7,0.5-0.2,0.5-0.1
	c0.8-1,0.7-0.2,1.5-1.4c-0.6,1.6,1.6-0.2,1.6,0.4c0.5-0.5,1.1-0.7,1.1-0.5c0.5-0.3,0.8-0.5,1-0.5c-0.2,0.3-0.4,0.6-0.7,0.9
	c0.5-0.5,0.4-0.4,0.8-0.8v-0.1c0.1,0,0.2,0.1,0.2,0.1c-0.7,0.6-0.2,0.5-0.7,1c-0.1,0.2,0.2-0.1,0.4-0.3c-0.1,0.1-0.2,0.2-0.2,0.3
	c0.1,0,0.7-0.7,0.8-0.7c0.2-0.2,0.3-0.4,0.5-0.6l0,0c0.2-0.1,0.4-0.2,0.7-0.4c-0.1,0.1-0.5,0.6-0.3,0.5c0.6-0.7,0.8-0.6,1-0.6
	c-0.1,0.1-0.3,0.2-0.4,0.4c0.4-0.3,0.7-0.5,0.9-0.5c-0.1,0.2-0.2,0.3-0.1,0.3c-0.2,0.1-0.7,0.5-1,0.7c-0.2,0.2-0.1,0.1-0.2,0.3
	c-0.4,0.3-0.2-0.2-0.6,0.3c0.2,0,0.2,0.2,0.9-0.5c-0.5,1.2,1.2-0.4,0.9,0.5c0.4-0.4,0.2,0,0.6-0.5c-0.3,0.4,0,0.2-0.1,0.3
	c-0.1,0.1-0.2,0.2-0.3,0.3c0.5-0.5,0.2,0.1,0.7-0.3c0-0.1-0.1-0.1,0.2-0.4c-0.4,0.7,0.2,0,0.1,0.2c-0.3,0.3-0.1,0.2-0.4,0.6
	c0.4-0.2,0.4,0,0.8-0.4c0.1-0.2,0.6-0.8,0.3-0.4c-0.1,0.2-0.2,0.3-0.3,0.5c0.3-0.1,0.5-0.2,0.8-0.3c0,0-0.1,0.1-0.1,0.2
	c0.1,0.1,0.4-0.1,0.6-0.3c-0.1,0.1-0.2,0.2-0.3,0.3c0.4-0.3,0.1,0,0.3-0.1c0.1-0.1,0.1-0.2,0.2-0.3c-0.2,0.5,0.3-0.2,0.3-0.1
	c-0.1,0.1-0.2,0.2-0.3,0.4c0.2,0.1,0.2,0.4,0.8,0c-0.1,0.3-0.4,0.7,0.2,0.1c-0.1,0.2-0.2,0.3-0.3,0.5c0.4-0.4,0.6-0.4,0.4,0.1
	c0.1-0.1,0.2-0.2,0.3-0.3c-0.2,1.3,1.3,0.6,1.5,1.5c0.4-0.3,0.4,0,0.5,0.1c0.1-0.1,0.2-0.2,0.3-0.3c-0.2,0.4,0.1,0.3,0.3,0.1
	c-0.5,0.6,0.1,0.1,0.2,0c-0.1,0.8,0.9,0.2,1,0.7c0-0.1,0.1-0.1,0.2-0.2c2.8,1.5,6.4,1.8,8.7,3.9c0.2-0.2,0.4-0.2,0.3-0.1
	c-0.1,0.2-0.1,0-0.2,0.2c-0.1,0.4,0.3-0.2,0.4-0.2c0,0.1-0.1,0.3-0.2,0.4c0.5,0,0.7,0.3,1.2,0.3c-0.1,0.1-0.3,0.4-0.2,0.3
	c0.1-0.1,0.2-0.2,0.3-0.3c0.3,0.8,1.4,0.7,1.8,1.5c0.5,0,0.9,0.1,0.8,0.7c0.4-0.3,0,0.4,0.5,0c-0.2,0.7,0.6,0,0.3,0.7
	c0.9-0.3,0.6,0.8,1.4,0.6c0,0.1-0.1,0.3-0.2,0.4c0.7-0.2,0.4,1,1.1,0.6c-0.3,0.7,0.5,0,0,0.7c0.1-0.1,0.2-0.2,0.3-0.3
	c-0.2,0.5,0.1,0.3,0.2,0.4c0.2,0.2,0.1,1.1,0.6,0.6c0.3,0.8,1,1,1.1,1.9c0.1,0,0.1-0.1,0.2-0.2c0,0.6,0,1.2,0.6,1.1
	c-0.1,0.2-0.2,0.4-0.3,0.6c0.5-0.2,0.4,0.1,0.3,0.4c0.1,0,0.2-0.2,0.3-0.3c0.1,0-0.3,0.7-0.1,0.6c0.5-0.1,0.5,0.5,0.5,1
	c0-0.1,0.2-0.2,0.3-0.3c-0.2,1,0.2,1.1,0.5,1.5c-0.1,0.2-0.3,0.4-0.4,0.6c0.5-0.5,0.2,0,0.6-0.4c-0.5,0.7,0,0.3-0.3,0.9
	c0.5-0.4,0.3,0.4,0.5,0.5c-0.6,0.9,0.4,0.2,0,0.9c0.1-0.1,0.2-0.4,0.4-0.5c-0.1,0.2-0.4,0.7,0.1,0.2c-0.3,0.7-0.1,0.8,0.1,0.9
	c-0.1,0.3-0.5,0.5-0.6,0.8c0.5-0.3,0.8-0.4,0.9-0.2c-0.3,0.4-0.1,0.2-0.3,0.3c0-0.2-0.1-0.2-0.3-0.2c0.1,0.1,0.1,0.2,0.1,0.3
	c-0.2,0.2-0.3,0.3-0.4,0.5c0.3-0.3,0.6-0.4,0.4,0c-0.1,0-0.1-0.2-0.3,0.1c0,0.1,0,0.3,0.4,0c-0.1,0.2-0.3,0.4-0.4,0.6
	c0.3-0.1,0.1,0.3,0.6-0.3c-0.4,0.7,0.1,0.3,0.2,0.5l0,0l0,0c-0.1,0.1-0.2,0.2-0.1,0.2c0.2-0.3,0.7-0.8,0.4-0.3
	c-0.1,0.1-0.3,0.2-0.4,0.4c0,0.4,0.1,0.6,0.3,0.7c0,0-0.1,0-0.1,0.1s0,0.4,0.1,0.5c0,0,0,0-0.1,0.1c0.1-0.1,0.2,0,0.2,0.1
	c-0.1,0.1-0.1,0.1-0.2,0.2l0,0l0,0l0,0c0.4-0.4,0.1,0.1,0.3-0.1c0,0,0,0,0,0.1c-0.1,0.1-0.1,0.2,0,0.1l0,0c-0.2,0.3,0.1,0,0,0.3
	c-0.2,0.3-0.1,0-0.3,0.3c-0.1,0.2,0,0.4,0.4,0.2l0,0c-0.2,0.1-0.3,0.3-0.4,0.4c0.1-0.1,0,0.1,0.1,0c0.2-0.1,0.3-0.3,0.4-0.4l0,0
	c-0.2,0.3-0.2,0.4-0.1,0.4c0-0.1,0.4-0.5,0.3-0.3c-0.6,0.7,0,0.2-0.2,0.6c-0.1,0.3-0.4,0.4-0.5,0.6c0.5-0.4,0.2,0.1,0.4,0
	c0.3-0.5,0.5-0.3,0.4-0.2c-0.2,0.1-0.5,0.3-0.7,0.7c0,0,0.4-0.4,0.3-0.2c-0.7,0.8-0.4,0.9-0.3,1l0.1-0.1c-0.4,0.5-0.5,0.6-0.7,0.6
	c0.1-0.3-0.1-0.1,0.3-0.6c-0.2,0.3-0.5,0.5-0.4,0.3c0.1-0.1,0.3-0.2,0.4-0.4c-0.1,0.1,0.4-0.5,0.1-0.3c-0.3,0.3-0.5,0.6-0.8,0.9
	c0.3-0.4,0.6-0.6,0.8-1c-0.5,0.5,0.3-0.7-0.3-0.1c-0.2,0.3-0.4,0.6-0.6,0.8c0.3-0.5,0.2-0.4,0.6-0.9c-0.7,0.5-0.4-0.1-0.5-0.3
	c0,0.1-0.1,0.1-0.2,0.2c-0.1,0.2,0.1,0-0.1,0.3c-0.4,0.3,0.3-0.6,0.2-0.6c-0.2,0.2-0.4,0.5-0.4,0.3c0.4-0.3,0.2-0.3,0.5-0.8
	c-0.4,0.3-0.1-0.6-0.9,0.2c0.1-0.2,0.3-0.3,0.4-0.5c-0.1-0.1,0-0.5-0.3-0.3c0.1-0.1,0.3-0.3,0.4-0.5c-0.1,0-0.1-0.1-0.4,0.2
	c-0.1,0.2-0.2,0.4-0.3,0.5c0.1-0.2-0.2,0.1,0-0.3c0.3-0.2,0.5-0.4,0.6-0.7c-0.7,0.6,0.3-0.9-0.6,0c0-0.1,0-0.2,0.2-0.4
	c-0.3,0.3-0.1-0.1-0.3,0.2c-0.1,0.1,0,0.1-0.2,0.3c0,0,0-0.1,0-0.2c0.1-0.1,0.1-0.1,0-0.1c0.1-0.2,0.2-0.4,0.2-0.5
	c-0.1,0.1-0.2,0.2-0.3,0.3c-0.2,0.2-0.1,0.1-0.2,0.3c-0.1,0-0.1,0-0.1,0c0-0.1,0-0.1,0-0.2c0,0.1-0.1,0.1-0.1,0.1
	c-0.1-0.2,0.2-0.9-0.4-0.4c0.2-0.4,0.1,0,0.3-0.3c0.1-0.5-0.2-0.3-0.1-0.7c-0.7,0.6,0.4-1.1-0.5-0.2c0.5-0.7-0.3,0,0.2-0.8
	c-0.5,0.5-0.3,0.1-0.4,0.1c0.5-0.7,0.2-0.8-0.4-0.2c0.1-0.2,0.3-0.3,0.4-0.5c-0.2,0.2,0.1-0.3,0-0.2c0,0,0,0,0.1-0.1
	c0.2-0.4-0.4,0.3-0.5,0.2c0.3-0.3,0.3-0.4,0.4-0.6c-0.4,0.4-0.3,0.1-0.8,0.5c0,0.1-0.1,0.2-0.2,0.3l0,0c0-0.1,0.1-0.1,0-0.1
	s-0.1,0.1-0.2,0.2l-0.1,0.1c0.1-0.3-0.2,0.2,0-0.3c-0.2,0.1-0.2,0.1-0.1-0.1l-0.1,0.1c0.2-0.6-0.5-0.1,0.3-1.3c0,0,0-0.2-0.3,0.2
	c-0.2,0.2,0.2,0-0.2,0.4c0.1-0.4-0.5-0.1,0.3-1c0.1-0.1,0-0.1,0-0.1c-0.2,0.2-0.3,0.5-0.5,0.6c-0.2-0.3-0.1-1-0.6-0.8
	c0.1-0.3,0.1-0.4,0.1-0.6c0,0,0.1,0,0,0.1c0.1-0.1,0.2-0.2,0.3-0.3c0,0.1-0.1,0.2-0.2,0.3c0.5-0.5,0.3-0.3,0.6-0.6
	c0.1-0.3,0.2-0.5-0.1-0.4l0,0c-0.4,0.6-0.2,0.2-0.5,0.6c-0.1,0.1-0.1,0.2-0.1,0.2c-0.1-0.2-0.3-0.3-0.4-0.5
	c-0.1,0.1-0.1,0.2-0.2,0.3c0.5-0.9-0.2-0.7-0.2-1.2c-0.2,0.1-0.3,0.3-0.4,0.4c0.1-0.5-0.2-0.4-0.1-0.9c-0.1,0.1-0.2,0.2-0.3,0.3
	c0.4-0.6,0.4-1-0.1-0.4c0.4-0.9-0.6-0.2-0.2-1c-0.3,0.4-0.3,0.1,0.1-0.3c-0.3,0.4,0,0.2,0.2,0c0,0,0,0,0,0.1
	c0.2-0.2,0.4-0.6,0.2-0.3c-0.1,0.1-0.1,0.1-0.1,0.1l0,0c0.1-0.2,0.3-0.4,0.5-0.8c-0.2,0.1-0.8,0.8-1,1.1c0-0.4-0.3-0.3-0.5-0.3
	c0.1-0.2,0.2-0.3,0.3-0.5c-1,0.5-0.6-1-1.3-0.7c0.1-0.4,0-0.3,0.2-0.6c-0.1,0.1-0.2,0.2-0.3,0.3c-0.2-0.9-1.1-0.9-1.3-1.7
	c-0.4,0.4-0.4,0-0.1-0.5c-0.5,0.5-0.1-0.1-0.3-0.1c-0.4,0.3-0.6-0.2-0.9-0.2c0.1-0.1,0.2-0.2,0.3-0.4c-0.7,0.5-0.1-0.5-0.7,0.1
	c0.1-0.2,0.2-0.4,0.3-0.5c0-0.1-0.2,0.1-0.4,0.3c0.2-0.3-0.3,0.3,0.2-0.4c-0.3,0.2-0.1-0.3-0.6,0.1c0.1-0.1,0.2-0.2,0.3-0.3
	c-0.3,0.2-0.1-0.2-0.4,0c0.1-0.2,0.2-0.5,0.1-0.3c-0.2,0.1-0.2,0.4-0.4,0.5c0.2-0.6,0.1-0.7-0.3-0.4c0.3-0.5-0.3,0-0.4-0.1
	s0.2-0.7-0.3-0.2c0.3-1-0.8-0.1-0.7-1c-0.1,0.2-0.2,0.3-0.3,0.4c-0.1-0.1,0-0.1,0.2-0.4c-0.7,0.5-0.6-0.5-1.2-0.2
	c0.1-0.1,0.1-0.2,0.2-0.3c-0.5,0.3-0.5-0.1-0.5-0.4c-0.6,0.2-1,0.3-0.5-0.7c-0.2,0.2-0.4,0.5-0.6,0.7c0.4-0.5-0.2,0.1-0.1-0.2
	c0.1-0.2,0.1,0,0.2-0.2c-0.1,0-0.1,0-0.4,0.3c0.1-0.8-1.1-0.1-1-1c-0.2,0.2-0.4,0.4-0.5,0.6c5.5,3.4,10.9,7,13.2,14.3
	c0.1,0.3,0.4,0.4,0.2,0.9c0.4-0.3,0.2,0.1,0.6-0.1c0,0.1-0.4,0.6-0.2,0.4c0.4-0.5,0.1,0.2,0.1,0.3c-0.1,0.3,0.6-0.2,0.2,0.3
	c-0.1,0-0.2,0-0.2-0.1c-0.1,0.1-0.1,0.2-0.2,0.3c-0.1-0.1,0.1-0.5-0.1-0.3c-0.1,0.3-0.3,0.7,0.1,0.4c-0.1,0.3,0.9-0.4,0.3,0.5
	c0.8-0.6,0,1.1,0.8,0.2c-0.2,0.2,0,0.1-0.2,0.4c0.3-0.4,0.4-0.1-0.1,0.5c0.2,0.1,0.7-0.3,0.5,0.3c-0.1,0.3-0.4,0.4-0.5,0.6
	c0.2-0.1,0.3-0.2,0.5-0.5c0.4-0.2,0,0.7,0.5,0.4c-0.4,0.3-0.3,0.4,0.1,0c-0.1,0.1-0.2,0.3-0.3,0.4c0.1-0.1-0.2,0.5,0.4-0.1
	c0,0.2,0,0.3,0,0.4c-0.7,1,0.4,0.4-0.2,1.5c0.8-0.6-0.2,1.2,0.7,0.4c-0.3,0.5,0.1,0-0.1,0.4c-0.4,0.3-0.3-0.2-0.6-0.1
	c-0.2,0.2-0.3,0.4-0.5,0.6c-0.1,0.2,0,0.2,0.3-0.1c-0.1,0.4-0.5,0.4-0.6,0.8c0.3-0.5,0.1,0.1,0.6-0.6c-0.2,0.4,0.1,0.2,0.1,0.3
	c0.2-0.3,0.3-0.3,0.6-0.7c-0.4,0.6-0.1,0.4,0.2,0.2c-0.1,0.2-0.3,0.3-0.4,0.5c0.2-0.1,0.3,0.2,0,0.6c0.1-0.3-0.2,0-0.2-0.2
	c-0.2,0.4-0.5,0.6-0.6,0.9c0.3-0.3,0.2-0.1,0.5-0.4c-0.5,0.6-0.6,1.4-0.1,0.9c-0.1,0.2-0.3,0.3-0.4,0.5c0.1,0,0,0,0.1,0
	c0.4-0.4,0.6-0.6,0.8-1c-0.1,0.2,0,0.1,0,0.2c0.1-0.3,0.1-0.3,0.1-0.4c0,0,0.1-0.1,0.1-0.2l0,0c-0.3,0.5,0.3-0.1-0.1,0.4
	c-0.3,0.4-0.3,0.2-0.6,0.6c-0.1,0.4,0.2,0,0.1,0.3c-0.3,0.2-0.4,0.5-0.6,0.7c0,0-0.2,0.1-0.3,0.2v0.1c0.1,0,0.1-0.1,0.1,0
	c-0.1,0.1-0.1,0.1-0.1,0.1v0.1c0.1-0.1,0.2-0.3,0.3-0.4c0,0-0.2,0.1-0.1,0c0.2-0.1,0.3-0.3,0.4-0.4c0,0.1-0.3,0.5-0.5,0.8
	c0.1-0.1,0.1,0,0.3-0.2s-0.1-0.1,0.2-0.4c-0.1,0.3,0.2,0.1,0,0.6c-0.2,0-0.3,0.1-0.5,0.2c0.1,0.2,0.1,0.3,0.2,0.5
	c0.1,0,0.1,0,0.1,0.1s0.1,0.1,0.1,0.2c0.3-0.1,0.6-0.4,0.3,0.1c0,0-0.1,0-0.2,0.1c0.1,0.1,0.1,0.1,0.1,0.2c0.2-0.1,0.3-0.2,0.4-0.4
	c-0.1,0.2,0.2-0.1,0,0.2c0,0-0.2,0.1-0.3,0.3c2,5,2.6,10.4,3.9,17.6c0.1,6,10,18.3,3,21.8c2,4.2,5.3,14.1,6.3,22.6
	c15-2.5,53.7,3.8,48.4-18.8c0.9-10.5-4.5-16.4-6.6-25.9c-3-13.1-9.3-25.1-10.7-38.3c1.1-9.3-8.7-19.7-8.8-28.9l0.3-4.4
	c6.6-7.9,22.7,12.2,38,11.8l11.2-0.8c0.4-2.5,2.4,2,4.3-8.1c0.5-2.7,0.1,9.2,3.1,13.7c-0.1-0.6-0.2-1.1-0.2-1.7
	c-0.1-0.6-0.4-2.1-0.1-2.1c-0.4-1.5-0.1-2,0.1-2.4c-0.3-1.1-0.1-1.4,0.1-1.9c0,0.2,0.1,0.3,0.2,0.5c-0.1-0.5,0.2-0.4-0.2-1.1
	c0.2,0.3,0.3,0.5,0.5,0.7c0-0.7,0-1.8-0.6-3.6c0.2,0.1,0.3-0.1-0.1-1c0.9,1,1.4,0.8,1.3-0.1c-0.1-0.2,0.1,0.3-0.1,0
	c-0.2-0.6-0.1-0.6-0.4-1.2c0-0.1,0.2,0.2,0-0.4c0.3,0.4,0.5,0.6,0.5,0.4c-0.2-0.4-0.3-0.8-0.4-1.2c1,0.9,1.4,0.6,1.2-0.9
	c0.6,0.8,0-0.6,0.2-0.5c-0.6-1.2,0.1-0.8-0.7-2.2c1.3,1.4,0.7-1.8,1.3-1.5c-0.2-0.8-0.2-1.5,0.1-1.4c-0.3-1.3,0.1-1.5,0.4-1.6
	c-0.2-1,0-1.1-0.1-1.9c0.1,0.2,0.4,0.9,0.4,0.6c-0.4-1-0.2-1.1-0.1-1.3c0.1,0.2,0.1,0.4,0.2,0.6c-0.2-1.1,0-1.7,0.5-1.2
	c0,0.2,0.3,1.5-0.3,0.3c0,0.2,0.2,0.9,0.2,1.3c0.2,0.2,0.2,0.1,0.3,0.3c0.1,0.4-0.3,0,0,0.7c0-0.1,0.1-0.1,0.1-0.4
	c0.1,0.2,0.2,0.4,0.2,0.4c0,0.1-0.1-0.1-0.2-0.2c0.1,0.4,0.4,0.9,0.6,1.3c0.1-0.1-0.4-1.1-0.3-1.2c-0.2-0.3-0.3-0.5-0.4-0.8l0,0
	c0-0.1-0.1-0.2-0.1-0.3c0.9,1.1,0.2-1.4,1-0.7c-0.2-0.4,0-0.3-0.1-0.6c0.1,0.1,0-0.1,0.1,0c0.1,0.2,0.1,0.4,0.2,0.5
	c-0.2-0.7,0.2-0.2,0.1-0.9c-0.1-0.1-0.2,0.1-0.3-0.4c0.4,0.7,0-0.2,0.2,0c0.1,0.5,0.1,0.2,0.4,0.7c0-0.5,0.2-0.4,0-0.9l0.1,0.1
	c0.1-0.5,0.2-0.8,0.2-1.5c0.1,0.4-0.1,0.1,0.2,0.7c0.1-0.1,0.2-0.3,0.2-0.5c0,0.1,0.1,0.2,0.1,0.2c-0.2-0.6,0-0.2,0-0.4
	c-0.1-0.1-0.2-0.2-0.2-0.3c0.3,0.4-0.1-0.5,0-0.4c0.1,0.2,0.2,0.4,0.3,0.6c0.3-0.1,0.6,0,0.5-0.8c0.2,0.2,0.6,0.7,0.2-0.2
	c0.1,0.2,0.2,0.4,0.3,0.6c-0.1-0.5,0-0.8,0.4-0.3c0-0.2-0.1-0.3-0.1-0.5c1.4,0.9,1.4-1,2.5-0.8c0-0.6,0.2-0.5,0.4-0.5
	c0-0.2-0.1-0.3-0.1-0.5c0.3,0.4,0.4,0.1,0.3-0.3c0.4,0.7,0.1-0.1,0.1-0.3c0.7,0.4,0.7-0.9,1.3-0.8c0-0.2-0.1-0.3-0.1-0.4
	c3.1-2.3,5.4-6,8.9-7.4c-0.2-0.4-0.1-0.5,0-0.4c0.1,0.3,0,0.2,0.1,0.4c0.4,0.4-0.1-0.4,0-0.5c0.1,0.1,0.2,0.3,0.3,0.4
	c0.3-0.6,0.7-0.7,1-1.2c0.1,0.1,0.2,0.4,0.2,0.3c0-0.2-0.1-0.3-0.1-0.5c1-0.1,1.6-1.3,2.6-1.3c0.3-0.5,0.5-0.9,1.2-0.5
	c-0.1-0.7,0.5,0.1,0.3-0.6c0.6,0.7,0.3-0.5,0.9,0.1c0.1-1.1,1.2-0.2,1.4-1.2c0.1,0.1,0.2,0.3,0.3,0.4c0.2-0.8,1.2,0,1.2-0.9
	c0.5,0.8,0.2-0.4,0.7,0.4c0-0.2-0.1-0.3-0.1-0.5c0.4,0.5,0.3,0.1,0.5,0c0.3-0.1,1.2,0.4,1-0.3c1,0.1,1.5-0.6,2.6-0.3
	c0-0.1-0.1-0.2-0.1-0.3c0.6,0.2,1.3,0.5,1.5-0.2c0.2,0.3,0.3,0.5,0.5,0.7c-0.1-0.6,0.2-0.3,0.5-0.1c0-0.2-0.1-0.3-0.2-0.5
	c0-0.1,0.5,0.7,0.5,0.4c0.2-0.5,0.9-0.3,1.5,0c-0.1,0-0.2-0.3-0.3-0.6c0.9,0.6,1.3,0.2,1.9,0.1c0.2,0.2,0.2,0.5,0.4,0.7
	c-0.3-0.8,0.1-0.2-0.1-0.9c0.5,0.8,0.3,0.1,0.8,0.7c-0.1-0.7,0.7-0.1,0.9-0.3c0.5,1,0.4-0.3,0.9,0.4c0-0.2-0.2-0.5-0.3-0.7
	c0.1,0.1,0.5,0.7,0.3-0.1c0.6,0.6,0.8,0.4,1,0.3c0.3,0.3,0.2,0.7,0.5,1c-0.1-0.7,0-1.1,0.3-1.1c0.2,0.5,0,0.2,0.1,0.6
	c0.3,0.3,0.3,0.5,0.4,0.7c0,0.1,0,0.1,0.1,0.2c0.2,0.3,0.4,0.5,0.2-0.1c0.2,0,0.4,0.1,0.3-0.4c0.2,0.2,0.2,0.5,0.4,0.7
	c0-0.2,0.3,0.1,0-0.7c0.5,0.7,0.4,0,0.6,0c-0.1-0.3-0.4-0.5-0.4-0.8c0.3,0.2,0.5,1.1,0.6,0.9c-0.2-0.3-0.5-1.2-0.1-0.6
	c0.1,0.2,0.1,0.4,0.2,0.6c0.5,0.3,0.8,0.2,1-0.1c0.2,0.5-0.3-0.2,0,0.3c0.3,0.2,0.9,0.6,0.6-0.2c0.2,0.3,0.1,0.1,0.2,0.1
	c0,0.2,0,0.4,0.2,0.6c-0.2-0.6,0.2,0.1,0-0.5c0-0.1-0.1-0.1-0.2-0.2c-0.1-0.7,0.7,1,0.5,0.3c0.3,0.5,0.2,0,0.4,0.3
	c0.2,0.4-0.1,0.2,0.1,0.5c0.3,0.2,0.5,0.2,0.5-0.3c0,0.2,0.1,0.4,0.2,0.6c0-0.2,0.1,0.1,0.1-0.1s-0.1-0.4-0.2-0.6
	c0.2,0.3,0.3,0.3,0.4,0.3c-0.1-0.1-0.4-0.8-0.2-0.5c0.4,1,0.2,0.1,0.5,0.5c0.1,0.2,0.1,0.5,0.3,0.8c-0.3-0.7,0.1-0.2,0.1-0.4
	c-0.3-0.5-0.1-0.6,0-0.5c0,0.2,0.1,0.5,0.4,1c0-0.1-0.3-0.8-0.1-0.5c0.5,1.1,0.8,0.8,1,0.8c-0.1-0.2-0.2-0.3-0.2-0.5
	c0.3,0.6,0,0,0.1,0c0.1,0.2,0.3,0.4,0.4,0.6c0,0.3,0.3,0.6,0.4,0.9c-0.3-0.2-0.4-0.4-0.3,0.1c-0.5-0.9-0.2-0.2-0.7-0.9
	c0.2,0.4,0.3,0.7,0.1,0.6c-0.1-0.2-0.1-0.4-0.2-0.6c0,0.2-0.4-0.6-0.3-0.2c0.1,0.5,0.4,0.9,0.5,1.3c-0.3-0.4-0.3-0.9-0.6-1.3
	c0.2,0.8-0.6-0.7-0.3,0.3l0,0c0.1,0.8-0.3,0.3-0.6,0.3c0,0.2,0.1,0.3,0.1,0.4c0.1,0.2,0-0.2,0.2,0.2c0.1,0.6-0.4-0.6-0.5-0.5
	c0.2,0.4,0.4,0.7,0.2,0.6l0,0c-0.1-0.5-0.2-0.3-0.5-0.9c0.1,0.6-0.8-0.1-0.3,1.1c-0.2-0.2-0.3-0.5-0.4-0.7c-0.1,0.1-0.4-0.3-0.4,0.2
	c-0.1-0.2-0.2-0.5-0.3-0.7c0,0.1-0.2,0,0,0.5c0.1,0.2,0.2,0.4,0.3,0.6c-0.2-0.2,0,0.2-0.3-0.2c0-0.3-0.2-0.6-0.4-0.9
	c0.3,1-0.8-0.7-0.3,0.6c-0.1,0-0.1-0.1-0.3-0.4c0.2,0.6-0.1,0.1,0.1,0.5c0.1,0.1,0.1,0,0.2,0.3c-0.2,0-0.6-0.5-0.8-0.6
	c0.1,0.2,0.1,0.4,0.2,0.5c0.2,0.2,0.2,0.1,0.3,0.3c0,0.7-1-0.7-0.8,0.4c-0.3-0.4,0-0.2-0.2-0.5c-0.4-0.3-0.5,0.1-0.8-0.2
	c0.3,1.1-1-0.9-0.5,0.5c-0.5-0.8-0.1,0.3-0.7-0.6c0.3,0.7,0,0.3-0.1,0.4c-0.5-0.9-0.7-0.6-0.4,0.3c-0.2-0.2-0.3-0.5-0.4-0.7
	c0.1,0.2-0.2-0.3-0.3-0.2c-0.2-0.4,0.1,0.6,0,0.6c-0.2-0.5-0.2-0.5-0.4-0.7c0.1,0.5,0,0.5,0,0.7l0,0c-0.2-0.1-0.1,0.3-0.5-0.4
	c0.2,0.5,0,0.1,0,0.4c-0.1,0-0.1,0.2,0,0.4c0.1,0.1,0.2,0.1,0.2-0.1c0.1,0,0-0.1,0.1,0c0,0.3,0.2,0.5,0.3,0.7c0.1,0.5,0,0.5-0.2,0.2
	c-0.1-0.2-0.1-0.4-0.2-0.6c0,0.1-0.1-0.1-0.1,0c0,0.3,0.3,0.5,0.3,0.8c-0.5-0.5-0.3,0.4-1.2-1c0,0.1-0.2,0,0.1,0.5
	c0.2,0.3,0.1-0.2,0.4,0.4c-0.3-0.3-0.4,0.5-0.9-0.8c-0.1-0.1-0.1-0.1-0.1,0c0,0.3,0.3,0.5,0.3,0.8c-0.2,0-0.5-0.1-0.7-0.1
	c-0.1-0.4-0.4-0.7-0.4-1.1c0.3,0.2,0.3,0.5,0.4,0.8c0.2,0,0.1-0.5,0-0.8c-0.3-0.3-0.3-0.2-0.9-1.1c0.3,0.8,0.3,1,0.6,1.9
	c0.2,0.2,0.1,0.1,0.3,0.3c-0.3,0-0.5,0-0.5,0.3c-0.8-0.6-1-0.1-1.5-0.2c0.1,0.1,0.2,0.2,0.2,0.3c-0.8-1-0.9,0-1.5-0.3
	c0,0.2,0.1,0.4,0.2,0.6c-0.4-0.3-0.6,0-1-0.3c0.1,0.2,0.2,0.3,0.2,0.5c-0.5-0.6-0.8-0.8-0.5,0c-0.7-0.8-0.4,0.5-1.1-0.3
	c0.3,0.6,0,0.4-0.2-0.2c0.3,0.4,0.2-0.1,0-0.4c-0.2-0.2-0.3-0.5-0.6-0.9c-0.1,0.3,0.4,1.3,0.6,1.6c-0.4-0.2-0.4,0.2-0.6,0.4
	c-0.1-0.2-0.2-0.4-0.3-0.6c0,1.3-1.3,0.1-1.4,1c-0.3-0.3-0.3-0.2-0.5-0.5c0.1,0.2,0.2,0.3,0.2,0.5c-1.1-0.2-1.6,0.7-2.6,0.6
	c0.3,0.7-0.1,0.4-0.5-0.1c0.3,0.9-0.2,0.1-0.3,0.3c0.2,0.6-0.6,0.5-0.7,0.9c-0.1-0.2-0.2-0.4-0.3-0.6c0.3,1-0.5-0.1-0.2,0.8
	c-0.1-0.2-0.2-0.4-0.3-0.6c0,0,0.1,0.3,0.2,0.6c-0.3-0.3,0,0.5-0.4-0.4c0,0.4-0.3,0-0.2,0.7c0-0.2-0.1-0.4-0.2-0.5
	c0,0.4-0.4-0.1-0.2,0.5c0-0.1-0.4-0.7-0.3-0.4c0,0.3,0.3,0.5,0.3,0.7c-0.5-0.6-0.7-0.5-0.6,0.1c-0.4-0.6-0.2,0.2-0.4,0.3
	c-0.1,0-0.7-0.6-0.4,0.2c-0.9-0.7-0.6,0.9-1.5,0.3c0.2,1-0.7,0.4-0.8,1.2c-0.1-0.1-0.1-0.2-0.2-0.3c0,0.7-0.4,0.5-0.7,0.4
	c0,0.6-0.2,1.1-0.7,0.5c0-0.1,0-0.2,0-0.3l0,0c-0.3-0.7-0.4-0.4-0.1,0.2c-0.2-0.4-0.4-0.8-0.7-1.2c0.1,0.3,0.6,1.2,0.3,0.9
	c0.2,0.3,0.3,0.5,0.4,0.5c0.1,0.2,0.2,0.4,0.2,0.5c-0.4-0.5-0.1,0.3-0.3,0.1c-0.1-0.3,0-0.2-0.1-0.4c0,0.2-0.1,0.1,0.1,0.6
	c-0.9-0.4-0.8,1.2-1.7,0.6c0,0.1,0.1,0.3,0.2,0.4c0,0.1,0,0.2-0.1,0.2c0.2,0.4,0.3,0.3,0.3,0.2l0,0c6.8-4.1,13.5-8.1,22.7-7.1
	c0.3,0,0.7-0.2,1.1,0.2c-0.1-0.6,0.3-0.2,0.2-0.7c0.1,0.1,0.5,0.7,0.4,0.4c-0.3-0.7,0.3-0.1,0.4,0c0.3,0.2,0.1-0.7,0.5-0.1
	c-0.1,0.1-0.1,0.3-0.2,0.2l0.1,0.1c-0.1,0-0.2-0.1-0.2,0.1c0.3,0.2,0.6,0.5,0.5,0.2c0.2-0.1,0-1,0.6-0.1c-0.2-1.1,1.1,0.6,0.6-0.7
	c0.2,0.3,0.2,0,0.4,0.4c-0.2-0.6,0.1-0.6,0.5,0.3c0.2-0.1,0.1-0.9,0.6-0.4c0.1,0.2,0.1,0.5,0.3,0.8c0-0.2,0-0.4-0.2-0.7
	c0-0.5,0.8,0.4,0.7-0.3c0.2,0.6,0.4,0.5,0.1-0.1c0.1,0.2,0.2,0.4,0.3,0.6c0-0.2,0.5,0.4,0.1-0.5c0.2,0.1,0.3,0.1,0.4,0.2
	c0.7,1.2,0.7-0.1,1.5,1c-0.2-1.1,1.1,0.9,0.8-0.5c0.3,0.6,0-0.1,0.3,0.3c0.1,0.6-0.3,0.3-0.4,0.6c0.2,0.3,0.3,0.5,0.4,0.8
	c0.1,0.1,0.2,0.1,0-0.4c0.3,0.3,0.2,0.7,0.5,1c-0.2-0.6,0.3-0.2-0.2-1c0.4,0.5,0.1-0.3,0.4,0.2c-0.4-0.7-0.2-0.6-0.5-1.2
	c0.5,0.6,0.4,0.2,0.3-0.2c0.2,0.2,0.2,0.5,0.4,0.7c0.1-0.3,0.4-0.3,0.7,0.2c-0.2-0.2-0.1,0.3-0.3,0.2c0.2,0.3,0.3,0.7,0.6,1
	c-0.2-0.5-0.1-0.3-0.2-0.7c0.3,0.9,1.2,1.4,0.9,0.6c0.2,0.2,0.2,0.5,0.4,0.7c0-0.1,0,0,0-0.1c-0.2-0.6-0.3-0.9-0.6-1.3
	c0.2,0.2,0.2,0.1,0.3,0.1c-0.2-0.4-0.3-0.4-0.4-0.5c0.1,0.2,0-0.4,0.3,0.1c0.2,0.5,0.1,0.4,0.3,0.9c0.2,0.4,0.1-0.2,0.3,0.1
	c0.1,0.3,0.3,0.6,0.4,0.9c-0.1,0-0.1,0.2,0,0.5c-0.1-0.1,0,0.2,0,0.2s0.3,0.5,0.2,0.1c0.2,0-0.2-0.7,0-0.5c0.2,0.5,0.5,0.5,0.5,0.9
	c0.1,0.1,0.1-0.2-0.3-0.8c0.3,0.8-0.1-0.1-0.3-0.4c0,0,0.1,0.2,0,0.1c0-0.2-0.2-0.4-0.2-0.6c0.1,0,0.3,0.6,0.6,0.9
	c0-0.2,0.1-0.1,0-0.4c-0.2-0.3-0.2,0-0.3-0.4c0.3,0.2,0.3-0.3,0.7,0.2c0,0.3,0.1,0.7,0,1c0.1,0.1,0.1,0.2,0.2,0.3
	c0.1-0.2,0.1-0.7,0.3-0.7c0.1,0.2,0.2,0.4,0.3,0.6c0-0.1,0,0,0-0.1c0-0.2-0.1-0.3-0.2-0.5c0-0.1,0.1-0.3,0.4,0.3
	c0-0.3-0.3-1.5,0.2-0.7c0,0,0.1,0.6,0.1,1.1c0.2,0.1,0-0.8,0.4-0.2c-0.2-0.3-0.3-0.7-0.5-1.1c0.1,0.2,0-0.2,0.2,0.1
	c0,0.2,0.2,0.8,0.5,1.3c-0.3-0.6-0.1-0.4,0.2,0c0,0,0.1,0,0.1-0.1c0-0.6,0.4,0,0.5-0.3c0,0,0,0,0,0.1c4.2-2.1,7.7-2.4,9.2-6.6
	c1.7-5,2.9-8.1,4.4-8.2c1.4-0.1,17.1-1.5,21.8-1.5s12.9-4.4,17.4-5.8c4.4-1.4,9.1,3.3,9.9,6.3c0.8,3,3.3,7.4,3.6,12.1
	s4.7,10.5,4.4,13.2s0,7.4-0.6,9.4s1.1,2.2-5.2,3.9S519.3,57.1,516,59c-3.3,1.9-21.8,6.6-26.2,7.7c-0.9,0.2-2.1,0.5-3.3,0.7
	c0,0,0,0,0,0.1c0,0,0,0-0.1-0.1c-4.4,0.9-10,1.8-13.1,3c-3.9,1.5-11.6,3-15.6,6.5s-9.3,2.2-1.6,18.4c7.7,16.3,14.1,32,20.4,32.8
	s4.7,4.4,23.1-2.5c18.5-6.9,44.1-14.3,51-15.4s12.7-3,16.3,1.4s8,8.5,5.5,10.7s-2.5-0.8-5.8,1.4s-8.3,2.8-14.1,3.9
	c-5.8,1.1-26.4,5.2-35,11.8c-8.5,6.6-20.7,9.6-25.6,12.1c-5,2.5-11.3,5-9.6,9.1c1.7,4.1,8.3,12.4,8.5,17.4s4.7,20.4,6.3,26.7
	c0.5,1.9,1.3,4.3,2.1,6.8c0.1-0.1,0.2-0.2,0.4-0.2c0-0.2-0.1-0.3-0.1-0.4c3.1-2.2,5.4-5.8,8.9-7.2c-0.2-0.4-0.1-0.5,0-0.4
	c0.1,0.2,0,0.1,0.1,0.3c0.4,0.3-0.1-0.4,0-0.5c0.1,0.1,0.2,0.3,0.3,0.4c0.3-0.6,0.7-0.7,1-1.2c0.1,0.1,0.2,0.4,0.2,0.3
	c0-0.2-0.1-0.3-0.1-0.5c1,0,1.6-1.2,2.6-1.2c0.3-0.5,0.5-0.9,1.2-0.5c-0.1-0.6,0.5,0.2,0.3-0.5c0.6,0.6,0.3-0.5,0.9,0.1
	c0.1-1,1.2-0.2,1.4-1.1c0.1,0.1,0.2,0.3,0.3,0.4c0.2-0.7,1.2,0.1,1.2-0.8c0.5,0.8,0.2-0.4,0.7,0.4c0-0.2-0.1-0.3-0.1-0.5
	c0.4,0.5,0.3,0.1,0.5,0c0.3-0.1,1.2,0.4,1-0.3c1,0.2,1.5-0.5,2.6-0.2c0-0.1-0.1-0.2-0.1-0.3c0.6,0.2,1.3,0.5,1.5-0.2
	c0.2,0.2,0.3,0.4,0.5,0.6c-0.1-0.5,0.2-0.3,0.5-0.1c0-0.1-0.1-0.2-0.2-0.4c0-0.1,0.5,0.7,0.5,0.4c0.2-0.5,0.9-0.3,1.5,0
	c-0.1,0-0.2-0.3-0.3-0.6c0.9,0.6,1.3,0.2,1.9,0.1c0.2,0.3,0.2,0.5,0.4,0.7c-0.3-0.7,0.1-0.1-0.1-0.8c0.5,0.8,0.3,0.1,0.8,0.7
	c-0.1-0.7,0.7-0.1,0.9-0.3c0.5,1,0.4-0.3,0.9,0.4c0-0.3-0.2-0.5-0.3-0.7c0.1,0.1,0.5,0.7,0.3-0.1c0.6,0.6,0.8,0.4,1,0.3
	c0.3,0.3,0.2,0.7,0.5,1c-0.1-0.6,0-1,0.3-1c0.2,0.5,0,0.2,0.1,0.6c0.3,0.3,0.3,0.6,0.5,0.8c-0.1-0.5-0.1-0.8,0.2-0.4
	c0,0.1-0.2,0,0,0.4c0.2,0,0.4,0.1,0.3-0.4c0.2,0.3,0.2,0.5,0.4,0.7c0-0.2,0.3,0.1,0-0.6l0,0c0.4,0.5,0.3-0.1,0.5-0.1
	c-0.1-0.3-0.4-0.5-0.4-0.8c0.3,0.2,0.5,1.1,0.6,0.9c-0.2-0.3-0.5-1.1-0.1-0.6c0.1,0.2,0.1,0.4,0.2,0.6c0.3,0.2,0.6,0.2,0.7,0.1
	c0.1,0,0.2,0.1,0.2,0c0,0,0,0-0.1-0.1c0,0,0,0,0.1,0c0,0.1,0.1,0.1,0.1,0.2c0.3,0.2,0.9,0.6,0.6-0.2c0.2,0.3,0.1,0.1,0.2,0.1
	c0,0.2,0,0.4,0.2,0.6c-0.2-0.6,0.2,0.1,0-0.5c0-0.1-0.1-0.1-0.2-0.2c-0.1-0.6,0.7,1,0.5,0.3c0.3,0.5,0.2,0,0.4,0.3
	c0.2,0.4-0.1,0.2,0.1,0.5c0.3,0.2,0.5,0.2,0.5-0.3c0,0.2,0.1,0.4,0.2,0.6c0-0.2,0.1,0.1,0.1-0.1s-0.1-0.4-0.2-0.6
	c0.2,0.3,0.3,0.3,0.4,0.3c-0.1-0.1-0.4-0.8-0.2-0.5c0.4,1,0.2,0.1,0.5,0.5c0.1,0.3,0.1,0.5,0.3,0.8c-0.3-0.7,0.1-0.2,0.1-0.4
	c-0.3-0.5-0.1-0.6,0-0.5c0,0.2,0.1,0.6,0.4,1c0-0.1-0.3-0.8-0.1-0.5c0.5,1.1,0.8,0.8,1,0.8c-0.1-0.1-0.2-0.2-0.2-0.4
	c0.3,0.6,0,0,0.1,0c0.1,0.1,0.3,0.3,0.4,0.5c0,0.3,0.3,0.6,0.4,0.9c-0.3-0.2-0.4-0.4-0.3,0.1c-0.5-0.8-0.2-0.1-0.7-0.8
	c0.2,0.4,0.3,0.7,0.1,0.6c-0.1-0.2-0.1-0.4-0.2-0.6c0,0.2-0.4-0.6-0.3-0.2c0.1,0.4,0.4,0.8,0.5,1.2c-0.3-0.4-0.3-0.8-0.6-1.2
	c0.2,0.8-0.6-0.6-0.3,0.3l0,0c0.1,0.8-0.3,0.3-0.6,0.3c0,0.1,0.1,0.2,0.1,0.3c0.1,0.2,0-0.2,0.2,0.2c0.1,0.6-0.4-0.6-0.5-0.5
	c0.2,0.4,0.4,0.7,0.2,0.6c-0.1-0.5-0.2-0.4-0.5-0.9c0.1,0.5-0.8-0.2-0.3,1c-0.2-0.2-0.3-0.5-0.4-0.7c-0.1,0.1-0.4-0.3-0.4,0.2
	c-0.1-0.3-0.2-0.5-0.3-0.7c0,0.1-0.2,0,0,0.5c0.1,0.1,0.2,0.3,0.3,0.5c-0.2-0.2,0,0.2-0.3-0.2c0-0.3-0.2-0.6-0.4-0.9
	c0.3,1-0.8-0.7-0.3,0.6c-0.1,0-0.1-0.1-0.3-0.4c0.2,0.6-0.1,0.1,0.1,0.5c0.1,0.1,0.1,0,0.2,0.3c-0.2,0-0.6-0.5-0.8-0.6
	c0.1,0.2,0.1,0.4,0.2,0.5c0.2,0.2,0.2,0.1,0.3,0.3c0,0.7-1-0.7-0.8,0.4c-0.3-0.3,0-0.1-0.2-0.4c-0.4-0.3-0.5,0.1-0.8-0.2
	c0.3,1.1-1-0.9-0.5,0.5c-0.5-0.8-0.1,0.3-0.7-0.6c0.3,0.7,0,0.3-0.1,0.4c-0.5-0.9-0.7-0.6-0.4,0.3c-0.2-0.2-0.3-0.5-0.4-0.7
	c0.1,0.2-0.2-0.3-0.3-0.2c-0.2-0.4,0.1,0.6,0,0.6c-0.2-0.5-0.2-0.5-0.4-0.7c0.1,0.5,0,0.5,0,0.7l0,0c-0.2-0.1-0.1,0.2-0.5-0.4
	c0.2,0.6-0.1,0,0,0.5c0.3,0.4,0.1,0,0.3,0.2v0.1c-0.1-0.1-0.1,0.1,0,0.4c0.1,0,0.1,0,0.1-0.1c0.1,0.1,0.1,0.2,0.2,0.3
	c0.1,0.5,0,0.5-0.2,0.2c-0.1-0.2-0.1-0.4-0.2-0.6c0,0.1-0.1-0.1-0.1,0c0,0.3,0.3,0.5,0.3,0.8c-0.5-0.6-0.3,0.4-1.2-1c0,0,0,0,0,0.1
	c0,0,0-0.1-0.1-0.2c-0.2-0.4-0.1-0.1-0.1,0.1c0.1,0.1,0.1,0.2,0.2,0.3c0,0.1,0.1,0.1,0.1,0.2c0.2,0.3,0.1-0.2,0.4,0.4
	c-0.3-0.3-0.4,0.5-0.9-0.8c-0.1-0.1-0.1-0.1-0.1,0c0,0.3,0.3,0.5,0.3,0.8c-0.2,0-0.4-0.1-0.6-0.1c-0.1-0.2-0.3-0.5-0.3-0.8
	c0.3,0.3,0.3,0.5,0.4,0.8c0.2,0,0.1-0.5,0-0.9l0,0c-0.3-0.3-0.3-0.2-0.9-1c0.3,0.7,0.3,0.9,0.6,1.8l0.1,0.1c-0.1,0-0.2,0-0.2,0
	c-0.2-0.5-0.1-0.3-0.3-0.8l0,0c-0.3-0.3-0.5-0.4-0.5-0.1c0.5,0.7,0.1,0.3,0.3,0.8c0.1,0.2,0.2,0.3,0.2,0.3s0,0,0,0.1
	c-0.8-0.6-1-0.1-1.5-0.2c0.1,0.1,0.2,0.2,0.2,0.3c-0.8-0.9-0.9,0-1.5-0.3c0,0.2,0.1,0.4,0.2,0.6c-0.4-0.3-0.6,0-1-0.3
	c0.1,0.1,0.2,0.2,0.2,0.4c-0.5-0.6-0.8-0.8-0.5,0c-0.7-0.8-0.4,0.5-1.1-0.3c0.3,0.5,0,0.4-0.2-0.2c0.3,0.4,0.2-0.1,0-0.4
	c-0.2-0.2-0.3-0.5-0.6-0.9c-0.1,0.3,0.4,1.3,0.6,1.6c-0.4-0.2-0.4,0.1-0.6,0.3c-0.1-0.1-0.2-0.3-0.3-0.5c0,1.3-1.3,0.1-1.4,1
	c-0.3-0.3-0.3-0.2-0.5-0.5c0.1,0.2,0.2,0.3,0.2,0.5c-1.1-0.1-1.6,0.7-2.6,0.6c0.3,0.6-0.1,0.4-0.5-0.1c0.3,0.8-0.2,0.1-0.3,0.3
	c0.2,0.6-0.6,0.6-0.7,0.9c-0.1-0.2-0.2-0.4-0.3-0.6c0.3,1-0.5-0.1-0.2,0.8c-0.1-0.1-0.2-0.3-0.3-0.5c0,0,0.1,0.3,0.2,0.6
	c-0.3-0.3,0,0.4-0.4-0.4c0,0.2-0.1,0.2-0.1,0.2c0-0.1,0-0.1,0-0.1c-0.3-0.5,0,0.2-0.2,0c0,0.1,0.1,0.2,0.1,0.3s0,0.2,0,0.3
	c0-0.1-0.1-0.3-0.2-0.4c0,0.4-0.4-0.1-0.2,0.5c0-0.1-0.4-0.7-0.3-0.4c0,0.3,0.3,0.5,0.3,0.7c-0.5-0.5-0.7-0.4-0.6,0.1
	c-0.4-0.6-0.2,0.2-0.4,0.3c-0.1,0-0.7-0.6-0.4,0.2c-0.9-0.7-0.6,0.9-1.5,0.3c0.2,0.9-0.7,0.3-0.8,1.1c-0.1-0.1-0.1-0.2-0.2-0.3
	c0,0.7-0.4,0.5-0.7,0.4c0,0.5-0.1,1-0.5,0.7c0-0.1,0-0.2,0-0.3c-0.4-0.6-0.4-0.4-0.2,0.1l0,0c-0.2-0.4-0.3-0.8-0.5-1.1
	c0.1,0.2,0.3,0.7,0.4,0.9l-0.1-0.1c0,0.1,0,0.1,0.1,0.2c0,0,0,0-0.1-0.1c0.1,0.1,0.1,0.2,0.2,0.3c0.1,0.2,0.2,0.3,0.2,0.5
	c-0.4-0.5-0.1,0.3-0.3,0.1c0-0.1,0-0.1,0-0.1c0.1,0.1,0.2,0-0.1-0.4c-0.2-0.3-0.1,0.1-0.2,0c0.1,0.1,0.1,0.2,0.2,0.3
	c0,0.1,0,0.2,0.1,0.4c-0.9-0.4-0.8,1.2-1.7,0.6c0.1,0.3,0.2,0.5,0.3,0.7l0,0c0.3,0.7,0.3,0,0.3,0c-0.1,0-0.2,0.1-0.2,0.1
	s0-0.1-0.1-0.1c0.1-0.1,0-0.7,0.3,0l0,0c0,0,0,0,0.1,0c0,0,0,0,0-0.1c6.7-4,13.4-7.8,22.4-6.8c0.3,0,0.7-0.2,1.1,0.2
	c-0.1-0.6,0.3-0.2,0.2-0.7c0.1,0.1,0.5,0.7,0.4,0.4c-0.3-0.7,0.3-0.1,0.4,0c0.3,0.2,0.1-0.7,0.5-0.1c-0.1,0.1-0.1,0.3-0.2,0.2
	c0.1,0.1,0.2,0.2,0.2,0.3c-0.1,0-0.1,0-0.1,0.1c0.3,0.2,0.7,0.6,0.4-0.1c0,0.1,0,0.1-0.1,0.1c0.1-0.2,0-0.9,0.6-0.1
	c-0.2-1.1,1.1,0.6,0.6-0.7c0.2,0.3,0.2,0,0.4,0.4c-0.2-0.5,0.1-0.5,0.5,0.3c0.2,0,0.1-0.8,0.6-0.3c0.1,0.3,0.1,0.5,0.3,0.8
	c-0.1,0-0.3-0.2,0,0.4c0.2,0.3,0.3,0.1,0-0.4l0,0c0-0.2,0-0.4-0.2-0.7c0-0.5,0.8,0.4,0.7-0.3c0.2,0.5,0.4,0.5,0.1-0.1
	c0.1,0.2,0.2,0.4,0.3,0.6c0-0.2,0.5,0.4,0.1-0.5c0.2,0.1,0.3,0.1,0.4,0.2c0.7,1.1,0.7-0.2,1.5,0.9c-0.2-1.1,1.1,0.8,0.8-0.5
	c0.3,0.6,0-0.1,0.3,0.3c0.1,0.6-0.3,0.3-0.4,0.6c0.2,0.3,0.3,0.5,0.4,0.8c0.1,0.1,0.2,0.1,0-0.4c0.3,0.3,0.2,0.7,0.5,1
	c-0.2-0.5,0.3-0.1-0.2-0.9c0.4,0.5,0.1-0.3,0.4,0.2c-0.4-0.6-0.2-0.5-0.5-1.1c0.5,0.6,0.4,0.2,0.3-0.2c0.2,0.2,0.2,0.5,0.4,0.7
	c0.1-0.3,0.4-0.3,0.7,0.2c-0.2-0.2-0.1,0.3-0.3,0.2c0.2,0.3,0.3,0.7,0.6,1c-0.2-0.5-0.1-0.3-0.2-0.7c0.2,0.5,0.5,0.9,0.8,1
	c0.1,0,0.1,0,0.2,0c0-0.1,0-0.2,0-0.3c0.1,0.1,0.1,0.2,0.2,0.3h0.1c-0.1-0.3-0.2-0.6-0.5-0.9c0.2,0.2,0.2,0.1,0.3,0.1
	c0-0.1-0.1-0.1-0.1-0.1c-0.1-0.2-0.1-0.3-0.1-0.3l0.1,0.1c0.2,0.5,0.1,0.4,0.3,0.9c0.2,0.4,0.1-0.2,0.3,0.1l0,0
	c0.5-0.1,1.1-0.1,1.6-0.1c6.6,0,12.9-1.7,25.3-5.2c12.4-3.6,9.9-5,18.2-6.6C598.3,194.5,602.4,192.3,600.7,195.4z M534,199.2
	c0.2,0.3,0.4,0.4,0.2-0.2C533.9,198.7,533.8,198.7,534,199.2z M531.2,198.8c0.3,0.5,0.1-0.2,0-0.4C530.9,198,531,198.5,531.2,198.8z
	 M528.3,202.8c0.2,0.4,0.3,0.4,0.2,0C528.4,202.7,528.2,202.4,528.3,202.8z M526.8,202.5c0.3,0.6,0.4,0.4,0.4,0.1
	C526.9,202.2,526.8,202.3,526.8,202.5z M524.9,203.2c0.2,0.4,0.2,0.1,0.3,0.3C525.1,203.2,524.7,202.8,524.9,203.2z M517.4,205
	c0.1,0.3,0.2,0.6,0.4,0.9c0,0-0.1-0.4-0.2-0.7C517.6,205.2,517.5,205.2,517.4,205z M510.8,208.9c0.2,0.3,0.3,0.8,0.1,0.5
	c0.3,0.6,0.4,0.3,0.3,0.1C511.1,209.3,511,209.1,510.8,208.9z M467.8,26c0.1,0.2,0.3,0.5,0.2,0C467.7,25.5,467.6,25.6,467.8,26z
	 M467,26c0.4,0.6,0.3,0.2,0.5,0.4C467.2,25.9,466.9,25.7,467,26z M465.4,25.3c0.1,0.1,0.4,0.6,0.3,0.1
	C465.5,25.2,465.3,25,465.4,25.3z M465,26.1c0.2,0.2,0.3,0,0-0.4C464.9,25.6,464.7,25.5,465,26.1z M463.2,25.7
	c0.3,0.4,0.2-0.1,0.3,0.1C463.6,25.9,462.9,24.9,463.2,25.7z M437.5,29.8c0.2,0.5,0.5,0.6,0.2,0C437.5,29.5,437.6,29.9,437.5,29.8z
	 M458.5,18.3c0.3,0.5,0-0.2,0-0.4C458.2,17.5,458.3,18,458.5,18.3z M458,21.9c0.3,0.5,0.3,0.3,0.1-0.1C457.9,21.4,458,21.7,458,21.9
	z M456.3,21.9c0.5,0.7,0.1,0.3,0.3,0.8l0,0c0.4,0.7,0.2,0.1,0.4,0.3c0-0.2-0.2-0.3-0.2-0.5c0-0.1,0.2,0.2,0.3,0.3
	c-0.3-0.7-0.1-0.4-0.3-0.9C456.5,21.7,456.3,21.6,456.3,21.9z M455.5,22.4c0.3,0.4,0.4,0.4,0.2,0C455.6,22.3,455.4,22,455.5,22.4z
	 M454.1,22c0.3,0.7,0.4,0.4,0.4,0.1C454.2,21.6,454.1,21.8,454.1,22z M452.2,22.8c0.2,0.4,0.2,0.1,0.3,0.3
	C452.4,22.7,452,22.3,452.2,22.8z M444.6,24.6c0.1,0.3,0.2,0.6,0.4,0.9l0,0c0.1,0,0-0.4-0.2-0.7C444.8,24.8,444.7,24.8,444.6,24.6z
	 M443.5,26c0.3,0.5,0.3,0.1,0.2,0C443.4,25.5,443.7,26.2,443.5,26z M438,28.6c0.2,0.3,0.3,0.8,0.1,0.5c0.3,0.6,0.4,0.3,0.3,0.1
	C438.3,29,438.2,28.8,438,28.6z M325.7,88.1c0.2-0.4,0.1-0.5-0.2-0.1C325.3,88.3,325.3,88.5,325.7,88.1z M325.1,85.7
	c0.3-0.4-0.1-0.2-0.3,0.1C324.5,86.2,325,85.8,325.1,85.7z M322,86.8c0.1-0.3-0.1-0.1-0.2,0C321.6,87.2,321.7,87.2,322,86.8z
	 M322.1,88.4c-0.1,0.1-0.2,0.3-0.3,0.4C321.9,88.8,322,88.7,322.1,88.4C322,88.6,322.2,88.3,322.1,88.4z M322.3,88.5
	c-0.2,0.1-0.3,0.2-0.3,0.4C322.1,88.9,322,89.2,322.3,88.5c0.3-0.2,0,0.4,0.3,0c0.1-0.1-0.2,0.1,0.2-0.5c-0.4,0.4-0.1-0.1-0.4,0.2
	C322.2,88.6,322.4,88.3,322.3,88.5z M322,87.9c-0.1,0.2-0.1,0.3,0.2,0C322.4,87.6,322.2,87.8,322,87.9z M321,86.5
	c-0.2,0.2-0.1,0.1-0.2,0.3c0.3-0.2,0.4-0.5,0.7-0.7c-0.1,0.3-0.3,0.4-0.5,0.6c0,0.2,0.4-0.1,0.7-0.3c0.1-0.4,0-0.3,0.5-1.1
	C321.7,85.9,321.6,85.9,321,86.5z M320.8,85.3c0,0,0.2-0.4-0.1-0.1S320.5,85.6,320.8,85.3z M320.5,84.2c0.2-0.4,0-0.3-0.1-0.3
	C320.1,84.4,320.3,84.4,320.5,84.2z M314.6,78.4c0,0.1,0.3-0.2,0.5-0.4c0,0,0-0.1,0.1-0.2C315,78,314.8,78.2,314.6,78.4z
	 M313.9,77.7c0.3-0.5-0.2,0-0.1-0.2C313.5,77.9,313.8,77.7,313.9,77.7z M309.6,74.9c0,0,0-0.1,0.1-0.1c-0.1,0.1-0.1,0.1-0.1-0.1
	C309.2,75.1,309.4,75,309.6,74.9z M309.2,74.3c-0.5,0.7-0.1,0.6,0.1,0.5c0.4-0.5,0.2-0.5-0.2-0.1c0.2-0.3,0.5-0.6,0.7-1
	C309.6,73.9,309.1,74.7,309.2,74.3z M309,74.5C309.1,74.3,308.9,74.5,309,74.5C308.5,74.8,308.5,75.1,309,74.5z M296.1,64.2
	c0,0.1,0.1,0.1,0.3,0C296.5,63.9,296.4,63.9,296.1,64.2z M275.1,73.1c-0.2,0.2-0.5,0.4-0.6,0.7c0.3-0.3,0.2-0.1,0.4-0.3
	C275.2,73.1,275,73.3,275.1,73.1z M262.3,84.7c0,0-0.2,0.1-0.5,0.4C261.6,85.4,262.1,85,262.3,84.7z M262.9,89.4
	c0.2-0.4,0.1-0.2-0.1-0.1C262.7,89.5,262.7,89.6,262.9,89.4z M263.3,89.7c0.1-0.3-0.1-0.1-0.4,0C262.7,90.1,263.2,89.7,263.3,89.7z
	 M263.2,90.4c0.3-0.4-0.2,0.1,0-0.2C262.9,90.5,262.9,90.7,263.2,90.4z M263.6,93c-0.2,0.6-0.6,0.8-0.9,1.3c0.1,0,0.2-0.1,0.3-0.2
	c0.3-0.6,0.8-1.1,0.9-1C264.1,92.7,263.8,93,263.6,93z M266.6,92.2c0.1-0.3-0.3,0-0.6,0.3C266.2,92.5,266.2,92.6,266.6,92.2z
	 M277.2,74.2c-0.1-0.1-0.4,0.1-0.5,0.1c-0.2,0.1-0.3,0.3-0.4,0.5C276.6,74.5,276.9,74.4,277.2,74.2z M278.1,74
	c-0.4,0.3-0.5,0.1-0.7,0.3c-0.3,0.3-0.6,0.5-0.8,0.8c0.4-0.1,0.8-0.3,1.2-0.7C277.9,74.3,278,74.1,278.1,74z M286.7,105
	c-0.1,0.1-0.3,0.3-0.4,0.6C286.4,105.5,286.6,105.3,286.7,105L286.7,105z M288.2,106.5c0,0.1-0.1,0.2-0.2,0.3c0,0,0.1-0.1,0.2-0.2
	C288.2,106.5,288.2,106.5,288.2,106.5z M288.2,106.3c0-0.2-0.1-0.3-0.1-0.4C288,106,288,106,288,106c-0.1,0.1,0.3-0.1-0.1,0.3
	c0.1-0.1-0.3,0.1-0.3,0.2c0.2-0.1,0.2,0.1-0.1,0.4c-0.5,0.5-0.1-0.1-0.6,0.4c0.2,0,0.3,0,0.5,0c0.2-0.2,0.4-0.3,0.6-0.5l0,0
	c0.3-0.4-0.1,0,0.1-0.4L288.2,106.3z M292.9,65.4c0.2-0.1,0.3-0.2,0.3-0.3C293.2,65.1,293.1,65.2,292.9,65.4z M306.4,73.5
	c0-0.1,0.1-0.3,0.2-0.4C306.4,73.3,306,73.9,306.4,73.5z M305.2,72.9c0.1-0.3,0-0.2-0.2,0C304.9,73.2,305,73.1,305.2,72.9z
	 M304.9,72.6c0.1-0.2-0.1,0.1,0-0.2l0,0c-0.2,0.3-0.4,0.5-0.8,0.7c0,0.2,0.4-0.2,0.2,0.2C304.7,73,304.4,73.1,304.9,72.6z
	 M305.3,72.8c-0.2,0.2-0.3,0.4-0.5,0.6C304.6,73.8,305.1,73.2,305.3,72.8z M305.7,72.8c-0.1,0.1-0.3,0.3-0.4,0.5
	c-0.1,0.1,0-0.1,0.2-0.3c0.1-0.2-0.3,0.3-0.5,0.4c-0.1,0.3,0,0.2-0.1,0.4c0.3-0.2,0.4-0.5,0.7-0.7C305.8,72.7,305.6,73,305.7,72.8z
	 M306.7,73.7c-0.2,0.1-0.3,0.3-0.4,0.4c-0.2,0.3,0,0.2,0.3,0C306.6,73.9,306.4,74.1,306.7,73.7z M307,74.7c0.5-0.6-0.1-0.2-0.1-0.3
	C306.4,75,307.1,74.4,307,74.7z M320.8,92.2c-0.3,0.4,0,0.1,0,0.2C320.8,92.6,321.3,91.7,320.8,92.2z M321.1,93.7
	c-0.2,0.3,0,0.3,0.3-0.1C321.4,93.5,321.5,93.3,321.1,93.7z M322,95.8c-0.1,0.2-0.2,0.5,0.1,0.2C322.3,95.6,322.3,95.5,322,95.8z
	 M321.8,94.1c0.1-0.3,0.2-0.5-0.1-0.3C321.7,93.9,321.5,94.3,321.8,94.1z M321.7,95.8c0.3-0.4,0.3-0.7,0.1-0.5
	C321.4,95.8,321.8,95.5,321.7,95.8z M418.9,40.8c0.4,1.2,0.5,0.5,0.7,1.4l0,0c0.3,0.3-0.1-0.5-0.3-0.9
	C419.2,41.3,419.2,41.3,418.9,40.8z M418.7,41.3c0.1,0.1,0.2,0.3,0.3,0.5c-0.1,0,0,0.2,0.1,0.5s0.2,0.3,0.1,0
	c-0.1-0.1-0.2-0.3-0.2-0.5c0.1,0.2,0.2,0.4,0.3,0.6c-0.2-0.6-0.2-0.6-0.4-1.1C418.6,40.8,418.9,41.5,418.7,41.3z M433.8,33.9
	c-0.1-0.5-0.2-0.1-0.4-0.9c-0.2-0.2-0.1,0.2-0.3-0.1c0.2,0.4,0.3,0.7,0.4,1.1C433.8,34.2,433.6,33.5,433.8,33.9z M433.9,33
	c-0.2-0.4-0.2-0.2-0.1,0.1C434,33.4,434,33.3,433.9,33z M433.9,32.8c0.1,0.3,0.2,0.5,0.3,0.8C434.5,34,434.1,33.1,433.9,32.8z
	 M434.7,33.5c0-0.3-0.3-0.6-0.4-1.1c-0.2-0.4,0,0-0.2-0.2c0.1,0.2,0.2,0.5,0.3,0.7c0.1,0.3-0.1,0-0.2-0.3c-0.2-0.2,0.2,0.5,0.2,0.6
	C434.6,33.5,434.6,33.3,434.7,33.5L434.7,33.5z M435.2,31.9c-0.1-0.1-0.2-0.3-0.3-0.4C434.9,31.9,435.4,32.5,435.2,31.9z M435.8,32
	c-0.1-0.1,0,0.2-0.3-0.3c0,0.2,0.1,0.4,0.2,0.6C436,32.7,435.9,32.4,435.8,32z M506.6,214.2c-0.1-0.5-0.2-0.1-0.4-0.9
	c-0.2-0.2-0.1,0.2-0.3,0c0.2,0.3,0.3,0.6,0.4,1C506.5,214.4,506.3,213.8,506.6,214.2z M506.6,213.2c-0.2-0.4-0.2-0.2-0.1,0.1
	C506.7,213.7,506.7,213.5,506.6,213.2z M506.7,213.1c0.1,0.3,0.2,0.5,0.3,0.8C507.2,214.2,506.9,213.4,506.7,213.1z M507.4,213.8
	c0-0.4-0.3-0.7-0.4-1.1c-0.2-0.4,0,0-0.2-0.2c0.1,0.3,0.2,0.5,0.3,0.7c0.1,0.3-0.1,0-0.2-0.3c-0.2-0.2,0.2,0.5,0.2,0.6
	C507.3,213.8,507.3,213.6,507.4,213.8L507.4,213.8z M507.9,212.2c-0.1-0.1-0.2-0.3-0.3-0.4C507.7,212.1,508.1,212.7,507.9,212.2z
	 M508.6,212.3c-0.1-0.2,0,0.1-0.3-0.3c0,0.2,0.1,0.4,0.2,0.6l0,0C508.7,213,508.7,212.7,508.6,212.3z M535.9,206
	c0.3,0.5,0.2,0,0.3,0.1C536.3,206.2,535.6,205.2,535.9,206z M538.5,205.8c-0.3-0.2-0.4-0.4-0.3-0.1
	C538.3,205.8,538.6,206.3,538.5,205.8z M540.3,206.8c-0.3-0.5-0.6-0.7-0.5-0.4C540.1,207,540,206.5,540.3,206.8z M540.7,206.4
	c-0.3-0.5-0.4-0.4-0.2,0C540.7,206.6,540.9,206.8,540.7,206.4z M419,41.8L419,41.8L419,41.8L419,41.8z M468.3,24.3
	c0.3,0.4,0-0.3,0.3,0.3c-0.1-0.3-0.2-0.6-0.4-0.9C468.4,24.3,468,23.7,468.3,24.3z M465.7,23.8c-0.2-0.4-0.6-1-0.4-0.4
	C465.5,23.8,465.8,24.2,465.7,23.8z M463,23.3L463,23.3c-0.3-0.5-0.2,0-0.4-0.2c-0.2-0.3-0.2-0.5-0.3-0.8c-0.3-0.3,0.2,0.9-0.1,0.8
	c0.3,0.5,0.2,0.3,0.5,0.7c-0.1-0.5-0.1-0.1-0.3-0.6C462.5,23.1,463.1,23.8,463,23.3z M510.4,210.4
	C510.4,210.4,510.4,210.5,510.4,210.4c0.1-0.1,0.1,0,0-0.2C510.4,210.3,510.4,210.3,510.4,210.4z M462.3,23.5
	c-0.2-0.5-0.2-0.7-0.7-1.4c0,0.2,0.1,0.4-0.1,0.3c0.2,0.2,0.3,0.1,0.4,0.3c0.2,0.4,0,0.2,0.2,0.7C462.3,23.7,462,23,462.3,23.5z
	 M438.1,29.9C438.1,29.9,438.1,29.8,438.1,29.9c0-0.2-0.1-0.2-0.2-0.4C437.9,29.6,438,29.7,438.1,29.9z M463.8,23.2
	c-0.2-0.2-0.7-1-0.6-0.5c0.3,0.4,0.3,0.8,0.6,1.1C463.5,23,463.9,23.6,463.8,23.2z M461.8,23.5c-0.5-1-0.3-0.1-0.8-1
	c0.2,0.6-0.1,0.2-0.3-0.2c-0.1,0.2,0.1,0.5,0.1,0.9c0.1,0.1,0.2,0.1,0.2,0.2c0-0.2-0.2-0.4-0.2-0.6c0-0.1,0,0,0-0.1
	c0.1,0.2,0.2,0.5,0.4,0.7c0,0,0-0.1-0.2-0.5c0.1,0.2,0.2,0.4,0.3,0.6C461.3,23.2,461.5,23.2,461.8,23.5z M459.2,21.9V22
	c0.1,0.1,0.1,0.2,0.2,0.2c0-0.1,0-0.1-0.1-0.2S459.2,21.9,459.2,21.9z M461.5,18.5v-0.1c0,0,0,0-0.1-0.1
	C461.5,18.4,461.5,18.4,461.5,18.5L461.5,18.5z M459.6,22.3c0.5,0.7,0.1,0.3,0.2,0.6c0.6,0.8,0.1-0.2,0.6,0.4
	c-0.1-0.2-0.3-0.4-0.4-0.7c0-0.1,0,0,0.1,0c-0.1-0.2-0.2-0.3-0.3-0.3c0-0.1,0-0.1,0-0.1C459.7,22.1,459.5,22,459.6,22.3z
	 M538.2,202.8c0-0.1-0.1-0.2-0.1-0.3c-0.1-0.1-0.2-0.4-0.3-0.5c0.2,0.7,0,0.6-0.3,0.3c0.1,0.2,0.2,0.5,0.3,0.7
	C537.7,202.6,537.9,202.5,538.2,202.8z M440.9,28.4c0-0.2-0.2-0.3-0.3-0.4C440.8,28.3,440.8,28.4,440.9,28.4z M457.5,23.1
	L457.5,23.1L457.5,23.1L457.5,23.1z M540.4,201.2c0.2,0.3,0.2,0.3,0.5,0.8C540.8,201.7,540.7,201.4,540.4,201.2z M460.2,21.7
	c0,0.1,0,0.2,0.1,0.3C460.5,22.2,460.4,21.9,460.2,21.7z M436.8,31.9c-0.3-0.6-0.3-0.4-0.3-0.2c0.1,0.1,0.1,0.2,0.2,0.4
	C436.7,31.9,436.7,31.8,436.8,31.9z M459.7,21.9c0,0.1,0,0.1,0,0.2C459.8,22.2,459.8,22.1,459.7,21.9z M536.2,198.4l0.1,0.1
	c0,0,0.1,0,0.1-0.1C536.3,198.3,536.1,198.1,536.2,198.4z M540.3,200.9v0.1c0,0.1,0.1,0.1,0.1,0.2
	C540.4,201.1,540.4,201,540.3,200.9z M534.8,198.4L534.8,198.4c-0.2-0.4-0.4-0.3-0.4,0C534.5,198.4,534.6,198.4,534.8,198.4
	c-0.1,0-0.1-0.1-0.1-0.1C534.7,198.3,534.8,198.4,534.8,198.4z M535.7,203.8c-0.3-0.5-0.2,0-0.4-0.2c-0.2-0.3-0.2-0.5-0.3-0.8
	c-0.3-0.3,0.2,0.8-0.1,0.7c0.3,0.5,0.2,0.3,0.5,0.6c-0.1-0.4-0.1-0.1-0.3-0.5C535.3,203.5,535.8,204.2,535.7,203.8z M460.1,21.4
	c0,0.1,0.1,0.2,0.1,0.3C460.2,21.5,460.2,21.4,460.1,21.4c0-0.1,0-0.1,0-0.1S460.1,21.3,460.1,21.4z M419.9,38.5
	c0-0.1-0.1-0.1-0.1-0.2C419.8,38.4,419.9,38.5,419.9,38.5z M420.5,37.3c0,0.1,0.1,0.1,0.1,0.2C420.6,37.5,420.6,37.4,420.5,37.3
	C420.6,37.4,420.5,37.4,420.5,37.3z M419.2,40.6c0-0.1,0-0.3-0.1-0.5C419,40,419.1,40.3,419.2,40.6z M461.5,18.1
	c-0.2-0.3-0.3-0.2-0.2,0.1c0,0,0.1,0.1,0.2,0.1C461.4,18.1,461.5,18.2,461.5,18.1z M467.9,20.9c0.2,0.3,0.2,0.4,0.5,0.8
	C468.3,21.4,468.2,21.1,467.9,20.9z M465.8,18.7c-0.4-1,0.4,0.1,0.3-0.5c-0.5-0.2-0.6,0.1-1-0.1c0.1,0.4,0.1,0.1,0.3,0.4
	C465.4,18.2,465.5,18.2,465.8,18.7z M467.2,21.7c-0.2-0.3-0.1,0.1-0.2,0c0.2,0.6,0.2,0.1,0.3,0.2C467.3,21.8,467.2,21.8,467.2,21.7
	L467.2,21.7L467.2,21.7z M535,203.9c-0.2-0.5-0.2-0.7-0.7-1.3c0,0.2,0.1,0.4-0.1,0.3c0.2,0.2,0.3,0,0.4,0.2l0,0
	c0.2,0.4,0,0.2,0.2,0.7C535,204.1,534.7,203.4,535,203.9z M467.8,20.6v0.1l0.1,0.1C467.9,20.8,467.9,20.7,467.8,20.6z M534,203.8
	c-0.1-0.1-0.1-0.1-0.1-0.2C533.9,203.7,533.9,203.8,534,203.8z M536.5,203.6c-0.2-0.1-0.7-1-0.6-0.5c0.3,0.3,0.3,0.8,0.6,1.1
	C536.2,203.4,536.7,204,536.5,203.6z M544.1,207.1L544.1,207.1c0,0,0.1,0.1,0.2,0.2l0,0C544.2,207.2,544.1,207.1,544.1,207.1z
	 M544,207c0,0-0.1-0.1-0.1-0.2C544,206.9,544,207,544,207z M532.7,201.8c0,0.1,0,0.2,0.1,0.3C533,202.3,532.9,202,532.7,201.8z
	 M544.2,207c0-0.2,0.1,0-0.2-0.5c-0.2-0.2,0,0.1,0.1,0.4C544.1,206.9,544.1,206.9,544.2,207z M538.1,204.3c0-0.2-0.2-0.4-0.2-0.6
	c-0.2-0.2-0.1,0.1-0.1,0.1C537.9,204.2,537.8,203.7,538.1,204.3z M538.4,204.2c-0.1-0.3-0.6-0.9-0.4-0.4
	C538.2,204.2,538.5,204.6,538.4,204.2z M538.1,202.4c0,0,0-0.1,0-0.2C538.1,202.3,538.1,202.4,538.1,202.4
	C538.1,202.5,538.1,202.5,538.1,202.4z M534.7,205.6c-0.1,0-0.1-0.1-0.2-0.1C534.6,205.6,534.7,205.6,534.7,205.6z M544,207
	C544,207,544.1,207.1,544,207C544.1,207,544.1,207,544,207C544.1,207,544.1,207,544,207z M532.2,202c0,0.1,0,0.1,0,0.2
	C532.3,202.3,532.3,202.2,532.2,202z M532.1,202.4c0.5,0.7,0.1,0.3,0.2,0.6c0.6,0.8,0.1-0.2,0.6,0.4c-0.1-0.2-0.3-0.4-0.4-0.7
	c0-0.1,0,0,0.1,0c-0.1-0.2-0.2-0.3-0.3-0.3c0-0.1,0-0.1,0-0.1C532.2,202.2,532,202.1,532.1,202.4z M532.6,201.5
	c0,0.1,0.1,0.2,0.1,0.3C532.7,201.6,532.7,201.5,532.6,201.5c0-0.1,0-0.1,0-0.1S532.6,201.4,532.6,201.5z M532.1,202.5
	C532.1,202.4,532,202.4,532.1,202.5c-0.1,0,0,0.1,0,0.2C532.1,202.7,532.1,202.6,532.1,202.5z M516.5,206.4l-0.1,0.1
	C516.5,206.7,516.5,206.6,516.5,206.4z M529.7,203.4c0,0,0-0.1-0.1-0.2c0,0-0.1,0.1-0.1,0.2C529.6,203.5,529.6,203.3,529.7,203.4z
	 M530.2,203.4c0-0.1-0.1-0.1-0.1-0.2H530C530.1,203.3,530,203.2,530.2,203.4z M513.4,208.6c0-0.2-0.2-0.3-0.3-0.4
	C513.3,208.5,513.3,208.6,513.4,208.6z M529.8,203.3v-0.1l0,0C529.7,203.2,529.8,203.3,529.8,203.3z"/>
<path id="система" fill="#ffffff" d="M93.1,279.3c-8.6,11.5-22.2,18.9-37.8,18.9c-25.9,0-47-20.8-47-46.5s21.1-46.5,47-46.5
	c15.1,0,28.5,7.2,37.2,18.1l-7.4,5.7c-6.8-8.9-17.5-14.7-29.8-14.7C34.5,214.3,18,231,18,251.6s16.5,37.3,37.3,37.3
	c12.5,0,23.4-6,30.2-15.3L93.1,279.3z M169.5,205.5v11l-1.3,69.3l12.9-69l2.2-11.3h15.9v92.7h-10v-12.1l1.3-68.7l-12.6,68.3
	l-2.5,12.4h-15.9v-92.7h10L169.5,205.5L169.5,205.5z M353.2,279.6c-8.6,11.5-22.2,18.9-37.8,18.9c-25.9,0-47-20.8-47-46.5
	s21.1-46.5,47-46.5c15.1,0,28.5,7.2,37.2,18.1l-7.4,5.7c-6.8-8.9-17.5-14.7-29.8-14.7c-20.8,0-37.3,16.7-37.3,37.3
	s16.5,37.3,37.3,37.3c12.5,0,23.4-6,30.2-15.3L353.2,279.6z M420.4,205.2h38.3v9.6h-14.3V299h-9.7v-84.1h-14.3V205.2z M605.5,272.9
	l7.7,5.6c-9.2,13.3-22.5,19.8-38.3,19.8c-29.4,0-49.3-20.9-49.3-46.6s21.1-46.6,47-46.6c17.8,0,33.2,9.9,41.3,24.3L545,277
	c6.8,7.4,17.4,12,29.9,12C587.5,289.2,598.8,283.1,605.5,272.9z M539.6,269.3l61.1-42.1c-6.8-7.8-16.9-12.8-28.1-12.8
	c-20.8,0-37.3,16.8-37.3,37.4C535.2,258.2,536.7,264.1,539.6,269.3z M705.1,300.3l-8.5-84.3l-4.3,71.8l-0.9,12.5h-10l6.5-95.2h17.7
	l2.3,19.7l5.3,62.7l5.3-62.7l2.3-19.7h17.7l6.5,95.2h-10l-0.9-12.5l-4.3-71.8l-8.5,84.3H705.1z M836.3,205.2l10.2,93.3H837l-1.1-9.9
	h-14.3l-1,9.9h-9.5l10.2-93.3H836.3z M822.7,279h12.1l-6.1-62.6L822.7,279z"/>
</svg>
