<?xml version="1.0" standalone="no"?>
<!DOCTYPE svg PUBLIC "-//W3C//DTD SVG 20010904//EN"
 "http://www.w3.org/TR/2001/REC-SVG-20010904/DTD/svg10.dtd">
<svg version="1.0" xmlns="http://www.w3.org/2000/svg"
 width="283.000000pt" height="283.000000pt" viewBox="0 0 283.000000 283.000000"
 preserveAspectRatio="xMidYMid meet">

<g transform="translate(0.000000,283.000000) scale(0.100000,-0.100000)"
fill="#ffffff" stroke="none">
<path d="M1691 2434 c-48 -19 -66 -22 -77 -13 -11 9 -15 8 -20 -5 -3 -9 -9
-16 -14 -16 -4 0 -48 -22 -99 -50 -51 -27 -98 -50 -105 -50 -7 0 -21 9 -31 20
-26 28 -54 25 -91 -11 -27 -26 -31 -37 -27 -63 5 -30 1 -35 -46 -65 -55 -36
-78 -35 -83 1 -2 16 -9 23 -25 22 -12 0 -20 3 -17 8 8 13 -17 69 -27 62 -5 -3
-9 2 -9 10 0 9 -5 16 -11 16 -5 0 -19 20 -30 45 -11 25 -23 45 -26 45 -14 0 9
-105 36 -169 17 -38 31 -79 31 -91 l0 -22 -19 23 c-11 13 -22 22 -24 19 -12
-12 25 -155 81 -318 l60 -172 -62 -36 c-33 -20 -85 -54 -114 -76 -30 -22 -56
-37 -59 -34 -6 6 -27 102 -54 255 -14 80 -17 117 -10 119 6 2 9 8 5 13 -3 5 0
9 6 9 6 0 8 11 4 28 -3 15 -6 34 -6 42 0 8 -5 21 -11 28 -7 8 -5 12 7 12 18 0
22 15 6 25 -17 10 -12 38 5 31 11 -4 20 3 27 22 7 15 27 45 45 66 33 40 40 56
24 56 -4 0 -41 -25 -82 -55 -41 -30 -78 -55 -83 -55 -9 0 -4 31 9 64 7 16 5
18 -11 11 -41 -17 -65 -17 -84 0 -16 14 -24 15 -53 6 -18 -6 -43 -24 -55 -40
-15 -20 -33 -31 -61 -36 -29 -5 -38 -11 -34 -21 3 -8 -5 -17 -21 -24 -22 -8
-25 -13 -17 -28 6 -11 6 -24 0 -35 -6 -10 -9 -32 -7 -49 4 -45 37 -60 108 -53
l55 5 26 -77 c14 -43 53 -152 87 -243 34 -91 62 -168 62 -173 0 -4 -29 -44
-65 -89 -121 -154 -176 -291 -177 -443 -1 -150 44 -250 157 -353 198 -181 574
-220 947 -98 318 104 600 319 732 559 59 108 64 101 -71 121 -65 10 -126 20
-135 22 -12 4 -25 -12 -50 -58 -18 -35 -70 -101 -117 -150 -139 -146 -310
-245 -526 -305 -87 -24 -118 -27 -245 -28 -132 0 -152 2 -230 28 -245 81 -355
276 -281 498 22 66 79 170 96 176 6 2 51 -115 101 -259 86 -246 93 -263 117
-265 l25 -2 -29 132 c-15 73 -37 172 -48 220 -26 107 -25 115 1 57 17 -38 21
-42 28 -25 6 16 9 12 23 -25 l15 -45 1 60 c1 63 -17 144 -40 185 -14 25 -14
25 -19 -15 -5 -35 -7 -37 -13 -17 -11 31 -27 28 -28 -5 -1 -16 -9 4 -19 47
-18 72 -18 76 -1 90 54 45 132 102 177 128 l52 30 42 -101 c72 -175 96 -264
124 -457 30 -205 49 -280 42 -165 l-5 70 12 -52 c11 -48 27 -81 27 -55 0 19
-50 295 -70 387 -11 50 -20 99 -20 110 1 42 19 -11 34 -100 18 -105 53 -236
67 -250 13 -13 11 7 -11 115 -10 52 -18 95 -16 97 2 2 16 -40 31 -92 48 -161
65 -121 20 47 -13 51 -33 150 -44 219 -11 69 -34 163 -51 209 -17 46 -29 84
-28 85 8 7 121 35 125 32 8 -8 63 -197 89 -307 18 -72 33 -113 49 -130 28 -29
45 -88 54 -185 4 -53 8 -64 13 -45 4 14 8 37 8 51 0 15 9 37 19 50 l19 24 17
-40 c15 -37 27 -81 40 -147 3 -16 10 -28 15 -28 12 0 13 72 0 125 -10 45 4
117 26 136 12 9 20 7 39 -11 29 -28 32 -26 43 26 7 33 12 39 37 42 16 2 42 13
58 24 34 25 47 13 42 -36 -12 -99 -13 -123 -5 -136 12 -20 14 -16 33 72 8 42
25 99 38 127 18 43 26 51 48 51 19 0 32 10 49 36 17 27 28 34 42 29 17 -5 20
-2 20 25 l0 32 -47 -7 c-27 -3 -61 -13 -77 -21 -35 -17 -50 -10 -36 17 8 15 7
19 -5 19 -8 0 -21 -16 -29 -35 -9 -21 -22 -35 -32 -35 -15 0 -15 3 4 23 12 13
22 26 22 30 0 15 -38 6 -55 -13 -19 -21 -55 -27 -55 -10 0 6 -30 9 -75 8 -41
-2 -75 0 -75 5 0 4 -15 7 -33 7 -32 0 -33 1 -85 123 -29 67 -52 126 -52 130 0
10 105 9 179 -4 l65 -10 50 51 c42 42 48 52 36 61 -10 7 -80 9 -196 6 l-181
-4 -37 101 c-42 116 -43 125 -17 157 21 27 148 97 234 129 50 19 65 20 102 11
24 -6 58 -11 74 -11 29 0 31 3 31 35 0 22 6 38 15 41 20 8 19 19 -8 84 -31 76
-31 77 -79 84 -24 3 -56 8 -73 11 -18 3 -55 -5 -94 -21z m-319 -565 c15 -52
27 -95 28 -96 0 -2 -123 -43 -125 -40 -17 25 -46 132 -41 151 6 25 83 89 100
83 6 -2 23 -46 38 -98z m-25 -581 c-3 -8 -6 -5 -6 6 -1 11 2 17 5 13 3 -3 4
-12 1 -19z m10 -40 c-3 -8 -6 -5 -6 6 -1 11 2 17 5 13 3 -3 4 -12 1 -19z
m-410 -10 c-3 -8 -6 -5 -6 6 -1 11 2 17 5 13 3 -3 4 -12 1 -19z m420 -30 c-3
-8 -6 -5 -6 6 -1 11 2 17 5 13 3 -3 4 -12 1 -19z m-20 -260 c-3 -7 -5 -2 -5
12 0 14 2 19 5 13 2 -7 2 -19 0 -25z"/>
<path d="M1123 1265 c6 -56 27 -116 34 -98 7 18 -16 126 -28 138 -9 7 -10 -3
-6 -40z"/>
</g>
</svg>
